<?xml version="1.0" encoding="UTF-8"?>
<svg id="Layer_1" xmlns="http://www.w3.org/2000/svg" version="1.1" viewBox="0 0 1920 1920">
  <!-- Generator: Adobe Illustrator 29.3.1, SVG Export Plug-In . SVG Version: 2.1.0 Build 151)  -->
  <defs>
    <style>
      .st0 {
        fill: #fff;
      }

      .st1 {
        fill: none;
        stroke: #000;
        stroke-miterlimit: 10;
        stroke-width: 2.8px;
      }
    </style>
  </defs>
  <g id="arrow">
    <path d="M100.4,349.4c1.9,1.7,11.6-1.4,16.6,3.5s6.7,6.1,10.6,9.9,5.3,7.9,9,11.5,6.2,7.1,9.8,10.7,8.4,5,12,8.5,2,11.4,5.6,15,7.7,5.8,11.2,9.3,9.3,4.2,12.8,7.7,4.6,8.9,8.1,12.4,5.9,7.7,9.4,11.2,8.8,4.8,12.3,8.3,9.4,4.2,12.9,7.6,5.4,8.2,8.8,11.7,6.9,6.7,10.4,10.2,8.3,5.4,11.7,8.8,1.8,11.8,5.2,15.3,9.1,4.5,12.6,8,2.5,11.1,6,14.6,12.7,1,16.1,4.4,7.1,6.6,10.5,10.1,4,9.7,7.4,13.1,7.2,6.5,10.6,9.9,7.9,5.8,11.4,9.2,8.4,5.3,11.8,8.8,4.2,9.5,7.6,12.9,10,3.7,13.4,7.1,7,6.7,10.4,10.1,4.9,8.8,8.3,12.2,3.7,10,7.1,13.4,8.4,5.4,11.8,8.7,5.1,8.6,8.5,12,10.2,3.5,13.6,6.9,5.2,8.6,8.6,12,4.4,9.4,7.8,12.7,8.1,5.7,11.5,9.1,12.3,1.5,15.6,4.8.5,13.5,3.9,16.8,9.6,4.2,13,7.5,10,3.8,13.4,7.1,7.8,6.2,11.1,9.4,3.4,10.8,6.7,13.9,10.9,3.2,14.1,6.2,6.9,7.7,10,10.5c5.2,4.7,6.4,12.8,8.5,14.3,4.9-.4,10-4.4,14.7-4.8s9.5-1.4,14.4-1.8,9.7,2,14.6,1.6,9.3-2.7,14.3-3.1,9.2-3.3,14.2-3.7,9.9,5.2,14.9,4.9,9.6,1,14.6.6,9-6.8,14-7.2c4.7-.4,9.5-.7,14.4-1s9.8,3.6,14.7,3.2,9-7.5,13.9-7.8,9.7,1.5,14.6,1.1,9.8,2.3,14.6,1.9,9.9,3.3,14.7,2.9,9.4-2.4,14.3-2.8,9.7.6,14.5.2,9.3-4.1,14.1-4.5,9.2-5,14.1-5.4,9.5-1.3,14.3-1.7,10.1,6.4,15,6,9.1-6.6,13.9-7,10,5.2,14.9,4.8,9.4-2.6,14.2-3,9.5-2.3,14.3-2.7,9.5-2.3,14.3-2.7,10.1,5.2,14.9,4.8,8.9-9.5,13.7-9.9,10,4.8,14.8,4.4,9.4-3.1,14.2-3.4,9.5-1.4,14.3-1.8,9.5-1.8,14.3-2.2,9.5-2.1,14.3-2.5,9.7.2,14.5-.2,10.2,6.7,15,6.3,9.1-7.2,13.9-7.5,9.8,2.1,14.6,1.7c4.8-.4,9.9,2.9,14.7,2.5s9.6-.4,14.4-.8,9.3-4.8,14.1-5.2,9.2-5.9,14-6.3,10.1,4.8,14.8,4.4,9.2-6.6,13.9-7,9.9,2.1,14.6,1.8,9.5-2.7,14.2-3.1,9.7.5,14.5.1,10,4,14.8,3.6,9.1-7.7,13.9-8.1,10,2.9,14.7,2.5,9.4-4.1,14.1-4.5,10.2,5.7,14.9,5.3,9.8.9,14.5.5,9.7-1.2,14.4-1.5c4.9-.4,9.7-1.5,14.3-1.9s9.4-5.6,14-5.9,9.8-1.2,14.4-1.6,10.1,1.7,14.6,1.4,9.7-4.7,14.1-5,10.9,7.4,15,7.2c7-.5,9.9-4.4,12.4-4.5-2.1,3.4-.6,9-3.7,13.7s-5.8,7.4-8.7,11.8-9.2,5.3-12.1,9.5-5.7,7.7-8.5,11.8-.4,11.4-3.2,15.4-4.3,8.8-7,12.9-8.4,6.1-11.2,10-4.7,8.7-7.4,12.6-5.6,8.1-8.3,12-8.5,6.3-11.1,10.1-6.5,7.8-9,11.5c-3.1,4.7-.8,12-3,15.3-.8,1.5-3.9,2.3-2.1,2.1,4.3-.8,8.2-6,13.3-6.9s10.1,4.4,15,3.5,9.1-1.8,14-2.6,8.2-7.6,13-8.4,10,2.9,14.8,2.1,9.4-.5,14.2-1.2,8.2-7.9,13-8.7,10.2,4.4,15,3.6,9.8,1.6,14.5.8,8-9.5,12.7-10.3,10.5,5.8,15.2,5,9.4-1.1,14.1-1.8,7.9-10.5,12.6-11.2,10.4,5.3,15.1,4.5,9.7.7,14.4,0,8.5-6.7,13.2-7.5,9.9,1.9,14.6,1.1,8.1-9.5,12.7-10.2,10.8,7.6,15.5,6.8,8.7-5.8,13.3-6.6,8.7-5.7,13.3-6.4,10.6,5.7,15.2,4.9,8.6-6.4,13.2-7.2,10.5,5,15.1,4.2,8.3-8.1,12.9-8.9,10,2.2,14.6,1.4,9-4.2,13.6-4.9,10.3,3.8,14.9,3.1,8.8-5.5,13.4-6.3,8.7-5.8,13.3-6.6,10.7,5.1,15.2,4.3,9.8,0,14.3-.8,9.2-3.8,13.6-4.6,10-.2,14.3-1.1,9.7-3.3,13.7-4.1c6.3-1.3,7.5-5.8,10.4-6.6-2.4-2.4-5.3-3.2-9.7-7.6s-4.5-8.4-8.3-12.3-6.2-7-9.9-10.7-6-7.3-9.6-10.9-10-3.4-13.6-7-5.1-8.4-8.6-12c-3.3-3.3-9.7-3.8-13.2-7.4-3.4-3.3-4.6-9-8.1-12.5-3.4-3.4-3.2-10.4-6.7-13.9s-6-7.6-9.5-11.1c-3.4-3.4-8.8-4.8-12.3-8.3s-4.8-8.8-8.3-12.3-12.1-1.5-15.5-5-4-9.7-7.4-13.2-7.2-6.5-10.7-9.9-7.8-5.9-11.3-9.3-9.8-3.9-13.2-7.4,0-13.8-3.4-17.2-10.7-3-14.1-6.4-9.4-4.3-12.8-7.7c-3.4-3.4-5.9-7.8-9.4-11.2s-6.7-7-10.2-10.4-7.4-6.3-10.8-9.8-6.7-7-10.2-10.4c-3.4-3.4-5-8.7-8.4-12.1-3.5-3.4-7.5-6.2-10.9-9.6s-3.3-10.5-6.7-13.9-6.2-7.6-9.6-11-13.8,0-17.2-3.4-6.9-6.8-10.3-10.2-3.4-10.4-6.8-13.8-7.3-6.5-10.7-9.9-10.1-3.7-13.5-7.1-2.9-10.9-6.3-14.3-9.9-3.9-13.3-7.3-1.4-12.5-4.7-15.9-10.4-3.5-13.8-6.8-5.4-8.6-8.7-11.9-7.9-6.1-11.2-9.4-9.2-4.9-12.4-8.1-2.1-12.3-5.3-15.4c-2.9-2.7-7.1-.7-6.7,4.9.3,4.1,3.7,8.6,4.2,13.8s1.8,9,2.3,13.9-7.8,9.9-7.4,14.8,5.7,8.8,6.1,13.6,5.2,8.9,5.6,13.6c.4,4.6-2.3,9.6-1.9,14.3s-4.4,9.8-4,14.5.2,9.4.6,14.1,9.5,8.7,9.9,13.3-.5,9.6-.1,14.2,2.3,9.4,2.6,13.9-.5,9.7-.2,14.2-5.4,10.2-5.1,14.5,8,11.8,8.3,15.8c-2.2-.2-10.9-3.2-18-4.3s-8.6-2.5-14-3.4-8.7-3.6-13.8-4.4-10.2,4.7-15.2,3.9-8.7-4.5-13.7-5.3-9.9,2.4-14.8,1.6-8.4-7-13.3-7.8-9.9,1.8-14.7,1-9-3.3-13.9-4.1-9.1-2.9-13.9-3.7-8.9-4.4-13.7-5.2-10.8,7.1-15.6,6.3-8.6-6.2-13.4-7-8.8-4.9-13.6-5.8-9.8.7-14.5-.1-9.6-.2-14.4-1-8.6-6.4-13.3-7.2-10.4,4.1-15.1,3.3-8.5-6.7-13.3-7.5-10.6,5.7-15.4,4.9-8.5-7-13.2-7.8-10.4,4.3-15.2,3.5-8.5-6.7-13.3-7.5-10.5,4.6-15.2,3.7-7.9-10.2-12.7-11-10.2,2.8-14.9,2-9.5-1.1-14.2-1.9-8.7-5.9-13.4-6.8-10.6,5.1-15.3,4.3-9.1-3.4-13.8-4.3-9.3-2.1-14.1-2.9-10.1,2.1-14.8,1.3-8.5-6.9-13.2-7.7-9.6-.3-14.4-1.1-9.1-3.8-13.8-4.6-9.8.8-14.6,0-8.4-7.7-13.1-8.5-11,7.2-15.7,6.4-8-9.9-12.7-10.7-9.6-.7-14.3-1.5-9.6-.7-14.3-1.5-9.7,0-14.5-.7-10.2,2.8-14.9,2-8.8-5.2-13.5-6-9.9,1.3-14.7.5-8.8-5.1-13.6-5.9-10.1,2.3-14.8,1.4-9.5-1.5-14.2-2.3-8.2-8.6-13-9.4-10,1.8-14.7,1-10.1,2.4-14.9,1.6-9.5-1.5-14.2-2.3-9.4-1.6-14.2-2.5-8.6-6.6-13.3-7.4-10.1,2.4-14.8,1.5-9-4.2-13.7-5-9-4.5-13.7-5.3-10.2,2.6-14.9,1.8-8.8-5.4-13.5-6.2-10.3,3.5-15,2.7-8.6-6.6-13.3-7.4-9-4.2-13.7-5-10.1,1.8-14.8,1-9.1-3.8-13.8-4.6-9.7-.5-14.4-1.3-10.4,3.7-15.1,2.9-9.4-2.1-14.1-2.9-8.4-7.5-13.1-8.4-9.2-3.4-13.9-4.2-10.7,5.7-15.4,4.8-9-4.2-13.7-5-10.2,2.5-14.9,1.7-9.5-1.5-14.2-2.3-9.3-2.8-14-3.6-9.4-1.9-14.1-2.7-9.2-3.3-13.9-4.1-9.9.6-14.6-.2-8.4-8.2-13-9-9.7-.3-14.4-1.1-9.6-1-14.3-1.8-8.9-5.2-13.6-6-9.8-.3-14.4-1.1-10.3,2.5-14.9,1.7-9.2-3.4-13.9-4.2-9.6-1.8-14.1-2.5-9.9.2-14.5-.5-9.8-.5-14.4-1.2-8.5-8.3-13-9.1-10.5,2.5-14.9,1.8-10.1-.5-14.4-1.2-10.1-2.2-14.1-2.9c-7.4-1.2-11.1-1.3-13.1-1.5-2.1,1.4-4.3,2.2-4.3,2.2Z"/>
  </g>
  <path d="M593.3,836.3c2.3-.3,7.8,4.7,14.9,4.1s8.4-5.9,13.9-6.3,9.3,1.1,14.5.6c4.5-.4,9.6,3.3,14.7,2.9s9.2-2.9,14.2-3.4,9.6,2.3,14.6,1.9,9-6.2,13.9-6.6,9.8,3.5,14.7,3.1,9.3-3,14.2-3.3,9.5-.8,14.3-1.2,9.6,1,14.5.6c4.7-.4,9.3-3.2,14.1-3.6s9.7,1.3,14.5.9,9.6,0,14.4-.3,9.6.6,14.4.2,9.5-1,14.3-1.3,9.4-2.3,14.2-2.7,9.5-1.5,14.3-1.9,9.2-4.9,14-5.2,9.8,2.8,14.6,2.4,9.8,2,14.6,1.6,9.2-5.3,14-5.7,9.7,1.2,14.5.8,9.4-2.8,14.2-3.2,9.5-1.5,14.3-1.9,9.7.7,14.5.3,9.7.7,14.5.3,9.5-2.2,14.2-2.6,9.6-.7,14.4-1.1,9.4-2.7,14.2-3.1,9.8,2.1,14.6,1.7,9.4-3.3,14.1-3.7,9.9,3.3,14.7,2.9,9.3-4.9,14-5.3,9.6-.5,14.4-.9,10,4.8,14.8,4.4,9.2-6.4,13.9-6.8,10,4.7,14.8,4.3,9.6-1.7,14.3-2,9.2-6,13.9-6.4,10.1,5.5,14.8,5.1,9.4-4.2,14.1-4.5,9.8.8,14.5.4,9.7-.2,14.4-.6,9.8,1.1,14.5.7,9.4-5.4,14-5.7,9.9.6,14.4.2,10,.8,14.5.5,9.9-2,14.3-2.3,10.5,2.5,14.6,2.2c6.8-.5,11.3-2.8,13.9-3,.5.5-.2.7-3.3,6-1.9,3.1-5.2,6.7-8,11.5s-3.3,8.5-5.9,12.8-6.1,7-8.6,11.1-5.6,7.4-8.1,11.4-.6,10.5-3,14.5-6,7.3-8.4,11.3-3.9,8.6-6.3,12.5c-2.5,4.1-6.5,7.2-8.8,11s-4.3,8.7-6.5,12.4-9.8,6-11.8,9.3c-3.1,5.3.3,3.6,3.6,3.1,4.1-.7,9.1.4,14.4-.5s9.6,1.7,14.6.9,8.4-6,13.4-6.7,9.3-.8,14.2-1.6,9.5.3,14.4-.5,9.4-.6,14.2-1.4,9.6.5,14.4-.2,8.6-6.1,13.4-6.9,9.6,0,14.3-.8,9.7.9,14.5.2,8.7-5.8,13.4-6.5,10.2,4,15,3.2,9.1-3.3,13.8-4,9.6-.1,14.3-.9,8.5-7,13.2-7.7,10.3,4.6,15.1,3.9c4.7-.7,8.9-4.5,13.6-5.2s9-3.7,13.8-4.4,9.4-1.8,14.1-2.5,9.4-1.9,14.1-2.6,9.3-2,14-2.8,10.4,4.5,15.1,3.8,9.4-1.9,14.1-2.6,9.2-2.8,13.9-3.5,9.3-2.3,14-3,9-4.3,13.7-5.1,9.5-.9,14.2-1.6,9.6-.7,14.2-1.4,9.7-.2,14.3-.9,9.8.7,14.5,0,9-4.5,13.6-5.3,9.3-2.5,14-3.3,9.4-2.3,14-3,9.5-2,14-2.8,10.5,4.4,15,3.7,9.6-1.6,14.1-2.3,9.6-2.1,14-2.8,9.9-1.2,14.2-1.9,10.1-1.5,14.1-2.2c6.9-1.1,11.7-1.5,14.1-1.9.9-.1.2-3.4.2-3-2.3,3.6-6,6.8-9.1,11.4s-6.3,6.9-9.3,11.2-.5,11-3.5,15.3-10.1,4.5-13,8.7-4.1,8.7-7,12.8-6.2,7.3-9.1,11.4-4,8.8-6.9,12.9-6.1,7.4-8.9,11.5-5.3,8-8.1,12.1-4.8,8.3-7.6,12.4-6.7,7-9.5,11.1c-2.7,3.9-1,11-3.8,15s-6.6,7.1-9.4,11.2-9.4,5.2-12.2,9.2-5.2,8.1-8,12.2-3.3,9.5-6.1,13.5-4.5,8.6-7.3,12.6-7.2,6.8-10,10.8c-2.7,4-4.7,8.5-7.5,12.5s-5.4,8.1-8.1,12.1-5.7,7.8-8.4,11.8c-2.7,4-2.5,10.1-5.2,14.1s-10.8,4.4-13.5,8.4-5.2,8.2-7.9,12.2-3.5,9.4-6.2,13.4-5.6,7.9-8.4,11.9-2.1,10.4-4.8,14.3-7.7,6.5-10.5,10.5-4.3,8.8-7.1,12.8-8.9,5.7-11.6,9.7c-2.8,4-1.8,10.6-4.5,14.5s-10.2,4.8-12.9,8.8-3.1,9.7-5.8,13.6-5.9,7.8-8.6,11.7-5.8,7.9-8.5,11.8-4.7,8.6-7.4,12.6-4.7,8.6-7.4,12.5-5.8,7.9-8.5,11.8c-2.8,4.1-3.7,9.3-6.4,13.2s-8.2,6.3-10.8,10.2-7.9,6.6-10.5,10.4-1.7,10.9-4.3,14.7c-2.9,4.2-4.3,9.1-6.9,12.9s-9.4,5.8-11.9,9.4-6.4,8.2-8.7,11.6c-4,5.8-3.2,12.9-4.8,14.9-.8.4-4.1-3.3-6.6-3.7-4.4-.7-9.5.6-14.6-.3s-9-3.5-14-4.3-9.6,0-14.5-.9-9.2-2.9-14.1-3.7-9.8.9-14.7,0-9.5-1.2-14.3-2-9.1-3.9-13.9-4.7-10.2,2.5-15,1.7-9-4.2-13.8-5c-4.7-.8-9-4.8-13.8-5.6s-9.6-.9-14.4-1.7c-4.8-.8-9.3-3.2-14-4s-9.9.4-14.6-.4-9.2-3.8-13.9-4.6-10.6,4.5-15.3,3.7-9.6-1.3-14.3-2.1-9.5-2.1-14.2-2.9-9.7-.7-14.4-1.5-8.6-7.8-13.2-8.6-9.8-.5-14.5-1.3-10.5,3.4-15.1,2.6-9.2-4.3-13.8-5.1c-4.9-.8-10.2,1-14.7.2s-9.2-5.2-13.7-5.9-10.1-.5-14.5-1.2-10.4.2-14.6-.5c-6.1-1-10.9-2.3-14.2-2.8-2.9-.6-5.5-2.2-7-5.3-2.7-5.6-1.2-11.5-5-20.7-1.7-4.2-7.2-7.2-9-11.9s-3-9-4.9-13.6-3.4-8.9-5.2-13.4c-1.8-4.4-3.4-8.9-5.1-13.4s-1.8-9.6-3.6-14.1-2-9.6-3.7-14-2.4-9.5-4.1-13.9-4.5-8.7-6.2-13-3.2-9.3-4.9-13.6-7-7.9-8.7-12c-2.1-4.9-.9-6.1-5.9-3.5-2.8,1.3-6.5,5.1-12.2,7.7s-8.5,2.8-13.4,5-8.4,3.7-13,5.8-9.3,1.9-13.8,4-7.9,5.2-12.4,7.2-10.3,0-14.8,2-7.5,6.2-11.9,8.2-6.9,7.5-11.3,9.6-11.1-1.4-15.4.6-6.9,7.6-11.3,9.6-8.6,3.9-13,5.9-9.7,1.6-14,3.6-8.9,3.4-13.2,5.4-6.7,8.1-11,10.1-9.2,2.8-13.5,4.7-9.1,3.1-13.4,5.1-9.4,2.5-13.7,4.4c-4.4,2-8.8,3.8-13,5.8s-6.8,8.3-11,10.2-10.1,1.1-14.3,3-8.4,5-12.5,6.9-10.3,1.3-14.3,3.1-7.6,7.6-11.4,9.3c-5.9,2.7-11.4,2.4-14,3.6-1.1.5-2.1-.3-2.6-.2-.8.2-2.7.1-1.8-1.1,2-2.8,10-3,13.7-7.8,2.6-3.4.5-11,3.7-15.2s10.6-3.6,13.7-7.6,2.9-9.6,5.9-13.6,6.5-6.9,9.6-10.8,5.8-7.5,8.8-11.4,7.5-6.3,10.4-10.1,4.6-8.5,7.6-12.3,3-9.8,5.9-13.6,10-4.4,12.9-8.2,6-7.5,8.9-11.3,4.8-8.4,7.7-12.2,3.4-9.5,6.3-13.3,4.3-8.9,7.2-12.6,10.9-3.8,13.8-7.6,5.2-8.2,8-12,3.4-9.6,6.2-13.3,8.3-6.1,11-9.7c3.1-4.1,4.5-9,7.1-12.6s6.5-7.8,8.9-11.3c3.5-4.9,3.4-9.2,5.2-12.1-2.8-2.5-2.1-8.6-6.3-12.3s-10.9-1.2-14.8-4.6-5.4-7.8-9.2-11.1-5.9-7.3-9.6-10.6-8.7-4.2-12.4-7.3-4.2-9.5-7.9-12.6-10.8-1.8-14.4-4.9-7.5-5.7-11.1-8.8-7-6.3-10.6-9.4-5.9-7.6-9.5-10.7-7.1-6.3-10.7-9.4-9.3-3.6-12.9-6.7-4.8-9-8.4-12.1-9.6-3.4-13.2-6.4-4.6-9.2-8.2-12.3-7.7-5.7-11.2-8.7-6.2-7.5-9.8-10.5-8.1-5.3-11.6-8.3-9.5-3.6-13-6.6-6.6-7.2-10-10.1-4.2-10.1-7.6-13-10.4-3.2-13.6-6-6.4-8.2-9-10.6c-.8-1.6-1.4-3-1.4-3Z"/>
  <path class="st0" d="M1234.8,965c-.2-1.5-1.5-2.6-2.4-4-2.5-3.3-5.5-6.9-8.6-10.9s-4.7-7.7-7.6-11.6-5.8-7-8.7-10.9-6.1-6.9-8.9-10.7-5.2-7.7-8-11.4-4.8-8-7.6-11.7-5.9-7.3-8.6-10.9c-2.9-3.8-5.9-7.3-8.6-10.9s-5.8-7.6-8.4-11.1-5.9-7.7-8.5-11-5.7-8.8-7.8-11.5c-3.3-3.9-5-7.1-10.2-2.1-3.2,2.9-6.8,6.4-10.8,10s-7.6,5.9-11.4,9.4-7.3,6.4-11,9.8-6.5,7.3-10.2,10.7-7.6,6.2-11.3,9.5-6.7,7.3-10.4,10.5-7.9,6.1-11.4,9.3-7.6,6.5-11.1,9.7-7.7,6.6-11.1,9.7-7,7.6-10.3,10.6-8.7,6.8-11.4,9.3c-3.2,2.9-5.6,5.4-5.2,10.1.3,4.9,2.1,9.8,2.4,15s-.4,10,0,15.2.7,10,1.1,15.1,1.6,10,2,15,.9,10.1,1.3,15.1.7,10.1,1.1,15.1-.2,10.2.2,15.2,1.4,10.1,1.8,15c.5,6.6,1.4,12.6,1.9,18.9.5,5.1.7,5.1,4.2,3,4.1-2.5,8.5-4.6,12.6-7.1s8.2-5,12.3-7.5,7.5-6.1,11.6-8.6,8.9-3.8,13-6.4,7.6-6,11.7-8.5,8.5-4.6,12.6-7.1,7.9-5.6,12-8.1,8.9-3.9,13-6.4c4-2.4,8.1-5.1,12.4-7.7s7.6-6.1,11.8-8.7,8.2-5.2,12.4-7.8,8.5-4.8,12.6-7.4,8.3-5.3,12.4-7.8,8.4-5.2,12.5-7.7,8.4-5.3,12.4-7.8,9-4.6,12.9-7,8.5-5.7,12.2-8c1.3-.9,3.7-1.2,3.8-2.8,0,0-.5,0-.5,0Z"/>
  <path d="M1008.7,1115c-.6-.9-1-2.3-1.1-3.5-.3-4.3-.3-9-.7-14s0-9.2-.4-14c-.4-4.6-1.4-9.2-1.7-13.9s-.4-9.3-.8-13.9c-.4-4.8-.8-9.7-1.2-14.6s-1.3-9.7-1.7-14.6-.7-9.7-1.1-14.6-.9-9.7-1.2-14.6.4-9.8,0-14.7-.8-9.7-1.2-14.6-1-9.7-1.4-14.6c-.4-6.5.3-6.9,4.5-10.8,1.1-1,1.8-2.4,3.1-3.5,4-3.6,7.6-7.4,11.6-11s8.4-6.3,12.5-10c3.3-3,6.3-6.7,9.8-9.9s6.7-6.2,10.2-9.4,6.3-6.8,9.7-9.9,7.1-6,10.5-9.1,7.5-5.5,10.9-8.6,6-7.2,9.4-10.3,7.3-5.8,10.7-8.9,7.4-5.7,10.8-8.8,7-6.3,10.3-9.3c3.6-3.3,7-6.3,10.5-9.5,4-3.6,4.8-5.3,6.6-3.8,2.8,3.5,6.6,6.6,9.8,10.6s4.7,8.3,7.7,12.3c2.8,3.7,6.7,6.9,9.7,10.8s5.4,8,8.3,11.8,5,8.3,7.9,12.1,6.3,7.4,9.2,11.2c2.8,3.8,5,8,7.7,11.6,2.9,3.8,6.7,6.7,9.4,10.3s4.9,8.1,7.6,11.7,6.2,7.2,8.9,10.7,5.8,7.6,8.5,11.1,5.5,8,8,11.4,6.3,7.9,8.4,11.1c0,.6-.5,1-1.1,1.5-.7.7-2.1,1.3-3.9,2.4-2.7,1.7-6.7,3.7-11.4,6.6-3.6,2.2-7.7,4.8-12.2,7.5s-7.7,5.2-12,7.8-7.9,5-12.1,7.7-7.5,5.8-11.7,8.3-8.5,4.2-12.7,6.8-8.4,4.4-12.6,6.9-7.5,5.9-11.6,8.4c-4,2.5-8.4,4.6-12.5,7.1s-7.9,5.4-11.9,7.9-8,5.2-12.1,7.7c-4.1,2.5-8.3,4.7-12.4,7.2s-8.4,4.7-12.4,7.2-8,5.3-12,7.8c-4.1,2.5-8.2,5-12.2,7.5s-8,5.5-12,7.9-8.6,4.5-12.6,6.9-8,5.6-11.9,8-8.9,4.3-12.7,6.7c-.9.6-1.4,2-2.2,2.3-.5.1-1,0-1.3-.2-.3,0-.6-.3-.6-.3ZM1016.8,955.1c-.7,2.2-1.9,4.3-1.8,6.6.2,2.8,1.6,6.5,2,11.2.3,3.4.1,7.2.4,11.3.3,4.4,1.2,9.3,1.6,14.7s.7,9.6,1.1,14.7-.6,9.9-.2,14.8c.4,5,1.8,9.8,2.1,14.6s1,10.1,1.3,14.7c.4,5.5.7,10.5,1,14.7.4,5.3.7,8.2,1.4,9.5,1,1.8,2.4,0,4-.7,2.8-1.7,7-4.3,12.5-7.6s8-4.6,12.6-7.5,8.5-4.3,12.9-7,8.1-5,12.5-7.7,7.3-6.5,11.6-9.1,8.4-4.8,12.6-7.4,8.3-5.1,12.5-7.7,8.3-5.2,12.5-7.7,8.8-4.4,13-6.9,8.4-5.2,12.5-7.7,8.3-5.4,12.3-7.9c4.3-2.7,8.7-4.8,12.7-7.2s8.5-5.5,12.4-7.9,8.9-5.3,12.5-7.6c5.4-3.3,9.6-6,12.4-7.8.9-.5,1-1.9,1.6-2.4,2.5-1.8,2.9-2.3.2-6.1-.9-1.2-1.4-2.5-2.3-3.8-2.7-3.6-6.2-7.1-9.2-11.1s-5.2-7.9-8.2-11.9-6-7.5-8.9-11.4-5.6-7.8-8.5-11.7-6-7.6-8.9-11.4-6.4-7.4-9.2-11.1-5.6-8.1-8.3-11.8c-2.8-3.7-5.6-7-7.9-10.1s-5.2-8-7.2-10.7c-3-3.6-5.5-7.7-8.7-5.9-3,2.6-6,7.1-10.4,11.1s-7.8,5.7-11.9,9.3-6.9,7-10.8,10.5-7.5,6.5-11.3,10-7.3,6.9-11.1,10.3-7.4,6.9-11,10.3-7.5,6.9-11.1,10.2-7.3,7.3-10.8,10.6-8.8,6-12.1,9.1c-4.6,4.2-7.6,8.5-10.4,10.9-1.9,1.7-3.5,3-4.3,5.1,0,.4.5.3.5.3Z"/>
  <path class="st0" d="M1317.2,965c.2-1.5,1.8-2.5,2.7-3.8,2.5-3.3,5.1-7.2,8.2-11.2s5.6-7.1,8.5-11,5.3-7.4,8.2-11.2,5.1-7.7,7.9-11.4,5.9-7.1,8.7-10.8,5.9-7.2,8.7-10.8,5.1-7.9,7.9-11.5,6.1-7.2,8.8-10.7,6-7.4,8.6-10.9,5.4-8.2,7.9-11.5,5.8-8.7,7.9-11.5c3.3-3.9,4.6-7.1,9.8-2,3.2,2.9,7.4,5.8,11.4,9.4s7,6.6,10.8,10,7.3,6.4,11,9.8c3.6,3.2,7,6.8,10.7,10.2s7.8,6,11.5,9.3,6.8,7.2,10.5,10.4,7.4,6.6,11,9.8,6.9,7.3,10.4,10.5,8,6.3,11.4,9.4,7.3,7.3,10.6,10.3,8.8,6.7,11.6,9.2c3.2,2.9,4.2,5.3,3.8,10-.3,4.9-.2,10-.6,15.1s-.2,10-.6,15.1-1.2,10-1.6,15c-.4,5-.4,10.1-.8,15.1s-.7,10.1-1.1,15.1-1.7,10-2.1,15-.3,10.2-.7,15.1-.4,10.2-.7,15.1c-.5,6.6-.8,12.7-1.3,19-.5,5.1-1.7,5.1-5.3,3.1-4.1-2.5-8.1-5.2-12.2-7.7s-8.4-4.7-12.5-7.2-8-5.3-12.1-7.8-8.3-4.8-12.5-7.3-8.4-4.7-12.5-7.2-7.8-5.7-11.9-8.2-7.8-5.6-11.9-8.2-8.9-3.8-13.1-6.4c-4-2.4-7.7-5.8-12-8.4s-8-5.3-12.3-8-8.4-4.8-12.7-7.3-8.5-4.8-12.7-7.3-8.5-4.8-12.7-7.3-8.4-5.2-12.4-7.7-8-5.9-12-8.4-8.9-4.6-12.8-7-8.9-5.1-12.6-7.4c-1.3-.9-2.7-2.1-2.9-3.7,0,0,0,0,0,0Z"/>
  <path d="M1542.7,1114.4c-.9,1-2.8.1-3.8-.4-3.9-2.4-8-4.9-12.2-7.5s-7.8-5.2-12-7.8c-3.9-2.4-7.6-5.6-11.8-8.1s-8.6-4.1-12.7-6.6-7.5-5.9-11.6-8.4-8.7-4-12.7-6.5-7.7-5.6-11.8-8.1-8.4-4.5-12.5-7c-4-2.5-7.7-5.6-11.8-8.1s-8.3-4.7-12.4-7.1-8.3-4.7-12.4-7.1-8.2-4.9-12.2-7.3-7.9-5.5-11.9-8c-4.1-2.5-8.2-5-12.2-7.4s-8.6-4.4-12.6-6.8c-4.2-2.6-7.8-5.7-11.8-8.1-4.2-2.6-8.6-4.5-12.5-6.9s-8.2-5.4-12-7.7-8.2-5.5-11.9-7.8c-1.8-1.1-2.8-2.2-3.5-2.9-.6-.5-1.3-.7-1.2-1.4,2-3.2,5.1-6.8,8.3-11.2s4.5-7.7,7.5-11.7,6.2-6.6,9.2-10.5,5.5-7.2,8.4-11.1,5.8-7.1,8.7-10.9,4.8-7.9,7.6-11.7,5.5-7.4,8.3-11.2c2.9-3.7,6.7-6.8,9.7-10.8s5.4-7.9,8.3-11.8,5.7-7.8,8.6-11.6,6.1-7.6,9-11.3,6.1-7.7,8.9-11.3,5.4-8.5,8.2-11.9c1.9-1.5,2.8.5,6.8,4.1,3.5,3.2,7,6.2,10.6,9.5,3.3,3,6.9,6,10.4,9.2s7.5,5.4,11,8.5,6.6,6.4,10.1,9.6,6.3,6.8,9.8,9.9,6.8,6.3,10.2,9.4,7,6.1,10.4,9.2,7.4,5.7,10.8,8.8,6.2,7,9.6,10.1,7.7,5.4,11.1,8.5c4.1,3.7,7.2,8.1,11.1,11.6s8.5,6.5,12.5,10.1c1.2,1.1,1.7,2.8,2.8,3.8,4.2,3.9,4.5,4.3,4,10.9-.4,4.8,0,9.8-.3,14.7s-1.2,9.7-1.5,14.6-.8,9.7-1.2,14.6,0,9.8-.5,14.7-1.4,9.7-1.7,14.6-.5,9.8-.9,14.6-1.3,9.7-1.6,14.6c-.3,4.1-.5,8.2-.8,12.1s-.2,8.3-.5,12.1-1.1,8.4-1.3,12c-.7,9.1-.5,15.9-.8,19.5-.1,1.2-.8,2.1-1.4,3-.1.1-.1,0-.1,0ZM1330.7,962.4c0,1.6,2.5,1.8,3.7,2.7,2.7,1.7,7.2,4.4,13,8s8,5.4,12.8,8.3,8,5.8,12.6,8.7c4,2.5,8.7,4.2,12.9,6.8s7.6,6,11.8,8.6,8.8,4.1,13,6.7,7.9,5.7,12,8.2,8.5,4.6,12.7,7.1,7.9,5.7,12,8.3,8.5,4.8,12.6,7.3,8.5,4.8,12.6,7.3,8.4,5,12.5,7.5,8,5.6,12.1,8.1c3.9,2.4,7.6,4.6,11.3,6.9s7.9,3.9,11.7,6.3c.7.4.9,1.4,1.5,1.8,4.3,2.6,4.7,3.3,5.3-1.4.4-5.1,1.2-10.3,1.6-15.5.4-5.2,1.2-10.3,1.6-15.6s1.2-10.4,1.6-15.6c.4-5.2.1-10.5.5-15.6.4-5.2,1.4-10.4,1.8-15.5.4-5.4-.2-10.7.2-15.6s1.7-11.1,2.1-15.5c.5-6.3.8-10.6.7-13.3-.2-3.2-1.4-5.1-3.6-7.3-2.9-2.7-7.3-5.4-11.7-9.4s-7.1-6.5-11.1-10.1-6.4-7.5-10.3-11-7.6-6.4-11.4-9.8c-3.7-3.3-7.5-6.7-11.2-10.1s-7.2-7.1-10.9-10.4c-3.8-3.4-7.4-7-11-10.2s-8.3-6.2-11.8-9.4-7.1-7.7-10.5-10.8-8.3-7.4-11.2-10c-2.3-1.8-4.5-2.3-6.7,0-2.6,3.4-4.6,7.6-7.5,11.5s-5.7,6.9-8.5,10.6-6.1,6.7-8.8,10.4-5.5,7.2-8.3,10.8-5.3,7.4-8.1,11-4.9,7.8-7.6,11.3-6.3,6.8-9,10.3-4.7,8.1-7.3,11.6c-2.9,3.8-6.4,6.6-8.8,9.8s-5.2,8.5-7.1,11c-1.2,1.7-3.6,3.1-3.9,5.1,0,.2.3.2.3.2Z"/>
  <path class="st0" d="M1282.1,952.1c4.7,0,9.4-.3,14.3,0s9.6-1,14.4-.5,9.2,2.9,14,3.6,9.6-.1,14.4.8,9.1,2.8,13.8,3.8,9.6.7,14.3,2,9.2,2.6,13.8,4c4.5,1.4,8.3,5.4,12.8,6.9s8.9,3.3,13.4,5,9.9,1.1,14.3,2.9,8.6,4.1,13,6.2c4.3,2,9.1,3.2,13.4,5.4,4.3,2.2,6.9,7.4,11,9.7s9.9,2,14,4.5,7.5,6.1,11.5,8.7,7.4,6.1,11.2,9,7.3,6.3,10.9,9.3,6.4,7.1,9.9,10.3c3.5,3.3,7.8,5.7,11,9.2s6.3,7.2,9.2,11,7.6,6.4,10.2,10.4,4.3,8.8,6.5,13,2.4,9.4,4.2,13.8,4.1,8.6,5.3,13.2,3.3,9.1,4,13.8,1,9.6,1,14.4.4,9.7-.1,14.5c-.6,4.6-2.6,9.3-3.6,14.3-.9,4.6-2.7,9.2-3.8,14.1-1.1,4.6-1.7,9.4-3,14.3s-1.6,9.5-3,14.3-5.1,8.5-6.5,13.3c-1.4,4.6-1.5,9.6-3,14.3s-1.8,9.6-3.3,14.3-4.5,8.7-6.1,13.3-2.4,9.4-4.1,14-4.6,8.6-6.3,13.2-1.8,9.7-3.6,14.3-5.1,8.5-6.9,13c-1.8,4.5-3.2,9.2-5,13.7s-3.5,9.1-5.4,13.6-5.1,8.4-7,12.9-2.7,9.5-4.5,13.9-2.5,9.6-4.4,14-5,8.5-7,12.9-4.9,8.5-6.8,12.9-3.3,9.2-5.3,13.6-4.5,8.7-6.5,13.1-1.9,9.9-3.8,14.3c-2.1,4.5-5.2,8.4-7.2,12.7s-5.3,8.4-7.3,12.7c-2.1,4.5-3.3,9.4-5.3,13.6s-3.5,9.3-5.5,13.6-5.9,8.3-7.9,12.4-2.4,10.1-4.4,14.1c-2.4,5-6.7,8.3-8.5,12.1-3,6.1-4.1,11.1-5.3,13.6-.5.6-.6,2.6-1.8,2.8-1.6.2-5-.8-10.5-.8-4.1,0-9-1.6-14.7-1.6s-9.4,1.9-14.7,1.9-9.6-1.3-14.7-1.3-9.6,1.9-14.7,1.9-9.7-.6-14.7-.6-9.7-2.1-14.7-2.1-9.8.6-14.7.6-9.8.4-14.7.4-9.8.4-14.7.4-9.9-.2-14.7-.2-9.9-.1-14.7-.1-10,1.9-14.7,1.9-10.1-2.6-14.7-2.6-10.4-.5-14.7-.5c-6.3,0-11.4,2.5-14.7,2.5-3.2-.2-6.3-.4-7.8-3.8-2.2-4.4-4.4-8.6-6.6-12.9s-4.7-8.5-6.8-12.8-4.1-8.7-6.3-13.1c-2.2-4.3-2.8-9.4-5-13.7s-5.5-8-7.7-12.3-3.4-9-5.7-13.4-5-8.2-7.2-12.6-5.5-7.9-7.7-12.4c-2.1-4.2-5.1-8.1-7.3-12.6-2.1-4.3-1-10.3-3.2-14.7s-6-7.9-8.2-12.3-5.4-8.2-7.6-12.6-3-9.3-5.2-13.7c-2.1-4.4-5.7-8.1-7.9-12.4s-3.6-9.1-5.7-13.5c-2.1-4.4-4.2-8.8-6.4-13.2s-3.6-9.1-5.7-13.5-5.6-8.2-7.7-12.5-3.8-9-5.9-13.4-1.9-9.9-4-14.3-6.1-8-8.1-12.4-2.1-9.8-4.1-14.2-5.8-8.1-7.8-12.5-4-9-5.9-13.4c-2-4.6-4.7-8.7-6.6-13.1s-3.2-9.4-5-13.8-4.2-9-6-13.4-2.7-9.7-4.3-14c-1.8-4.8-3.2-9.5-4.7-13.8s-4.1-9.4-5.4-13.6-.7-10.5-1.5-14.6c-.9-6.7-1.6-11.7-.2-18.7,1.2-4.7,3.3-9.2,4.8-13.8s1.4-9.9,3.3-14.4,4.4-8.8,6.6-13.1,6.6-7.4,9.1-11.6,4.1-8.9,7-12.9,4.4-8.9,7.5-12.7,7.6-6.3,11-9.9,6.1-7.7,9.6-11.1c3.5-3.3,7.1-6.8,10.8-9.9s9.2-4.1,13.1-7,7.1-6.7,11.2-9.4,7.6-6.1,11.8-8.6c4.2-2.5,8.3-5.2,12.6-7.5s9.3-3.2,13.7-5.3,9.1-3.3,13.7-5.2,8.9-3.8,13.5-5.5c4.5-1.7,9.1-3.4,13.7-4.9,4.6-1.5,9.4-2.3,14.1-3.7s8.8-4.9,13.5-6,9.5-2.2,14.3-3.2,9.8-.3,14.7-1.1,9.7-.9,14.5-1.5,9.6-1.3,14.5-1.7,9.5-3.3,14.4-3.6,9.8.5,14.7.4,9.5,1.2,14.4,1.3c.7.2.3.8.4.8Z"/>
  <path d="M1414.2,1573.2c-1.8,1.7-6.7-.2-9.7-.3-3.6,0-8.3,2.4-14,2.4s-8.9-.9-14-.9-9,1.2-14,1.2-9.1,0-14,0-9.2-2.8-14-2.8c-4.6,0-9.2,2.2-14,2.2s-9.3.4-14,.5-9.3,0-14,0-9.3.4-14,.5-9.4-1-14-1-9.4,0-14,0-9.4-.5-14-.5-9.5-1.7-14-1.7-9.5,0-14,0-9.6,3.5-14,3.5-9.8-.7-14-.8-10.6-.2-14.1-.3c-7-1.6-9.1-8.9-12.6-14.9-1.7-3.3-2-8.1-4.2-12.6s-3.8-7.4-5.9-11.6c-2-3.9-4.7-8-7-12.6s-3.3-8.8-5.6-13.4-4.7-8.2-6.9-12.7-4-8.6-6.2-13-4.5-8.4-6.7-12.8c-2.1-4.2-6.4-7.5-8.6-11.9s-2.6-9.4-4.8-13.8-3.5-8.9-5.7-13.3-5.5-8-7.7-12.3-3-9.2-5.2-13.6c-2.1-4.3-4.7-8.4-6.8-12.7s-3.7-8.9-5.9-13.2-4.7-8.4-6.8-12.8-5.4-8.1-7.5-12.4-3.3-9.1-5.3-13.5-3.2-9.1-5.3-13.5-5.5-8.1-7.5-12.4-2.8-9.4-4.8-13.7-3.3-9.1-5.3-13.5-5.4-8.2-7.4-12.5c-2-4.5-5.4-8.2-7.3-12.6-2-4.5-2-9.7-3.9-14.1s-5.4-8.3-7.2-12.6-3.4-9.2-5.2-13.5-4.1-8.9-5.8-13.2-2.8-9.5-4.5-13.8-5.3-8.7-6.8-12.9c-1.7-4.9-1.7-10.1-3-14.3s-3.2-10-3.9-13.9c-.8-4.2.8-8,1.1-12.2.7-4.7,0-9.7,1.2-14.5s3.7-8.9,5.4-13.5,1.2-9.9,3.2-14.4,6.9-7.4,9.2-11.7,3.6-8.9,6.2-13.1,4.2-8.8,7.1-12.8,6.6-7.1,9.7-10.9,5.5-8,8.9-11.6,6.5-7.2,10-10.6,8.5-5,12.2-8.2,6.6-7.1,10.5-10.1,7.1-6.6,11.1-9.4,7.8-5.8,11.9-8.4,8.6-4.4,12.9-6.8,8.6-4.3,13-6.5,8.3-5.1,12.7-7.1,9.2-3.2,13.7-5,8.8-4.1,13.4-5.8,8.9-4,13.6-5.5,9.8-1,14.5-2.3,9.7-.7,14.5-1.8c4.6-1.1,8.5-5.3,13-6.2s9.6.5,14.2-.2,9.3-.5,14-1,9.2-1.9,13.8-2.3,9.3-1.6,13.9-1.8,9.3-1.4,14-1.5,9.4,0,14-.1,9.3,2.1,14,2.2,9.4-1.5,14.1-1.4c4.7.1,9.5-.3,14.4,0,4.7.3,9.4,1.8,14.3,2.2s9.6.5,14.4,1,9.5,1.1,14.3,1.7,9.7.4,14.4,1.1,9.4,2.5,14,3.4,9.1,3.6,13.7,4.6,9.4,2,14,3.1,9.5,1.8,14,3.1,9.3,2.9,13.6,4.4c4.7,1.6,8.8,4.3,13.2,6.1s9.5,2.6,13.7,4.7,9.4,3.2,13.5,5.5,7.4,6.7,11.3,9.3c4.1,2.8,7.6,6,11.3,9s7.3,6.3,10.7,9.6,8.5,5.3,11.6,8.9c3.2,3.7,6.3,7.5,9.1,11.4s3.6,9.2,6.1,13.3,7.2,7.1,9.3,11.5,2,9.7,3.7,14.2,3.8,8.9,5,13.6,1.4,9.5,2.3,14.3,1.7,9.4,2.2,14.3,3,9.5,3.2,14.3-1.1,9.7-1.2,14.6-1.1,9.6-1.5,14.4.7,9.8,0,14.6-2.1,9.5-3.1,14.2c-1,4.6-.7,9.6-1.9,14.5s-2.2,9.3-3.5,14.1-3.6,8.9-5,13.7-5.2,8.4-6.6,13.1,0,10.1-1.5,14.7-2.5,9.3-4.1,13.9-4.4,8.6-6.1,13.2-3.1,9.1-4.8,13.7-4,8.8-5.7,13.3-3.7,8.9-5.5,13.4-3.1,9.1-4.9,13.7-4.4,8.6-6.2,13.1-3.5,9-5.4,13.5-3.4,9-5.3,13.5-2.9,9.3-4.8,13.7-6,8-7.9,12.4-2,9.7-4,14.1-4.4,8.6-6.4,13-2.3,9.6-4.3,14-4.4,8.7-6.4,13-4.9,8.4-6.9,12.8-2.9,9.4-4.9,13.7-6.9,7.5-9,11.8-1.4,10.1-3.5,14.4-6.7,7.6-8.8,11.9-1.8,10-3.9,14.3-4.9,8.5-7.1,12.7-4.6,8.7-6.8,12.8-3.5,8.6-5.6,12.8c-.2.9-.6,1-.6,1ZM1171.3,1551.6c2,2.6,5.2,1.6,7.5,2.2,3.7.1,8.4,3.1,14.2,3.1s9.2-.4,14.4-.3,9.3-2.7,14.4-2.7,9.4,3.3,14.3,3.3,9.5-1.8,14.4-1.8,9.5.8,14.4.8,9.5.3,14.4.3c4.8,0,9.6.9,14.4.9,4.8,0,9.6-2.4,14.4-2.4s9.7.7,14.4.6,9.7.8,14.4.8,9.7-.7,14.4-.7,9.8,1.7,14.4,1.7,10-1,14.4-1,10.5-.9,14.4-.9c8.1.3,9.3-3.9,12.9-11.1,1.9-4,3.2-8.7,5.3-13.3s4.7-8.1,6.8-12.5,4.5-8.2,6.5-12.7c2-4.2,1.7-9.6,3.7-14s4.6-8.2,6.7-12.6c2-4.2,3.5-8.8,5.5-13.2,2-4.2,4.8-8.2,6.8-12.5s3.5-8.8,5.5-13.1,6.4-7.5,8.4-11.8.7-10.1,2.7-14.4,4.7-8.3,6.6-12.6,5.3-8,7.3-12.4,1.6-9.6,3.5-14,4-8.6,5.9-13,4.5-8.4,6.4-12.8c1.8-4.4,4.1-8.6,5.9-13s4.6-8.4,6.3-12.8,1.3-9.7,3-14.2,4.1-8.6,5.8-13,4.6-8.5,6.2-12.9,1.2-9.7,2.8-14.2,5.9-8.1,7.4-12.5,2.2-9.4,3.7-13.8,3.6-8.9,5-13.4c1.4-4.6,0-10,1.3-14.5s5.7-8.4,6.8-12.9.8-9.7,1.9-14.2.9-9.7,1.8-14.2,1.5-9.5,2.1-14c.6-5,.9-9.6,1.1-14.1s0-9.6-.3-13.9c-.8-4.8,1.2-10.1-.2-14.8-1.4-4.6-3.3-9.3-5.3-13.7s-4.8-8.5-7.2-12.8-5.4-8.1-8.2-12.1-6.9-6.8-10-10.6c-3.1-3.7-6-7.4-9.4-11s-6.5-7.1-10.1-10.4-6.8-6.9-10.6-10-6.9-6.9-10.9-9.8-8.8-4.2-12.9-6.9-8.4-4.7-12.7-7.2-8.6-4.4-12.9-6.7-8.7-4.2-13.1-6.3c-4.4-2.1-7.5-6.9-11.9-8.9s-9-3.8-13.5-5.6-9.2-3.2-13.8-4.8-9.2-3.3-13.8-4.8-9.3-2.9-14-4.2-9.4-2.7-14.1-3.8-9.8-1-14.5-1.9-9.5-2.5-14.3-3.2c-4.9-.7-9.7-2.1-14.4-2.6-4.9-.4-9.9,2.3-14.8,2s-9.6-3.3-14.5-3.4-9.8.8-14.6,1-9.8,0-14.6.2-9.6,1.6-14.5,2.1c-4.8.5-9.7.7-14.5,1.3s-9.6,1.5-14.4,2.3c-4.8.7-9.4,1.9-14.1,2.8s-9.6,1.2-14.2,2.3-8.6,5.1-13.1,6.4-9.4,2.1-13.8,3.6-9.9.9-14.3,2.6-8.9,3.8-13.2,5.8-8.2,5.3-12.4,7.4c-4.3,2.2-8.2,5-12.3,7.4s-8.9,3.9-12.8,6.5-7.8,5.7-11.6,8.4-7.7,5.8-11.4,8.7-7.5,6-11,9.1-5.8,7.9-9.1,11.2-9.1,4.6-12.3,8.1-6.2,7.5-9.1,11.2-4.9,8.5-7.5,12.3-5.4,8.1-7.8,12.1-2.8,9.4-4.8,13.6-5.2,8.3-6.8,12.5-2.3,9.4-3.3,13.8c-1.1,5-3.8,9.4-4,13.9,0,4.4,2.6,8.2,3.2,12s-1.3,8.5,0,12.6,3.7,7,5,11.3c1.6,4.4,3,9,4.7,13.5,1.7,4.4,3.3,8.9,5,13.4s4,8.6,5.8,13.1c1.8,4.4,4.1,8.6,6,13s3.6,8.8,5.5,13.2,4.8,8.2,6.8,12.6,2.4,9.3,4.3,13.7,2.6,9.3,4.6,13.6,6.2,7.6,8.3,11.9c2,4.3,4.8,8.2,6.9,12.6s2,9.6,4.1,13.9,3.9,8.7,6,13,6.4,7.5,8.5,11.7,2.1,9.6,4.2,13.9c2.1,4.3,5.3,8,7.4,12.3s3.4,9,5.5,13.2,5,8.2,7.2,12.4,3.7,8.8,5.9,13,5.5,7.9,7.7,12.1,4.5,8.4,6.7,12.6,3.3,9.1,5.4,13.3c2.2,4.3,6.3,7.5,8.5,11.7s3.1,9.1,5.3,13.3,2.9,9.3,5,13.5c2.2,4.3,4.7,8.3,6.8,12.6s3.6,8.9,5.7,13.1,5.2,8.1,7.4,12.3c1.7,3.4,2.6,7.8,4.6,11.5s7.2,6.6,9.3,9.4c.2.8-2.6,1.3-2.5,1.4Z"/>
  <path class="st0" d="M1138.4,795.7c-2-.4-5.1,1.6-7.7,2.8-2.5,1.2-5.3,3.6-9.4,5.7-4.2,2.1-9.8,2-14.4,4.3s-7.6,6.5-12,8.8-8.6,4.5-13.1,6.8-9.5,2.9-13.9,5.2-8.4,5-12.8,7.3-9.2,3.5-13.6,5.8-8.1,5.8-12.5,8c-4.4,2.2-8.4,5.3-12.7,7.5s-10,2-14.4,4.3-7.7,6.6-12.1,8.8-9.5,3.2-13.8,5.4-8.9,4.4-13.2,6.5-9.2,3.9-13.4,6.1-7.9,6.6-12.1,8.7-9.9,2.9-14,5-7.9,7-11.9,9c-3.1,1.8-4.3,2.3-5.9,5.4-1.7,3.7-3.2,8.2-5.4,13s-6.1,7.2-8.2,11.8-1.9,9.3-3.9,13.8-5.5,7.7-7.5,12.2-4.3,8.3-6.3,12.7-2.2,9.3-4.1,13.7-3.5,8.7-5.4,13.1-5.8,7.7-7.7,12-2.1,9.4-4,13.7-5.3,8-7.3,12.3-2.9,9.1-4.8,13.4c-2.3,5.3-5.7,9.6-7.7,14.1s-3.7,10.3-5.9,14.9-3,10.4-5.1,15.2c-2.1,4.7-5.8,8.9-7.9,14.1-1.4,4.7-.4,7.8,2.6,11.4,2.6,2.8,7.4,5.1,11.5,9.4s6.1,7.1,9.8,11,6,7.4,9.6,11.2,6.6,6.9,10.2,10.7,7.6,6.1,11.1,9.8,6.9,6.8,10.4,10.5,5,8.7,8.4,12.3,6.9,6.9,10.3,10.5,7.4,6.5,10.8,10,7.6,6.3,11,9.9,6.4,7.5,9.8,11,7.1,6.8,10.5,10.4,6.4,7.5,9.7,11.1,5.2,8.7,8.6,12.2,8.3,5.8,11.6,9.3,5.4,8.6,8.7,12.1,7.3,6.8,10.6,10.2,7.7,6.5,10.9,9.9,5.7,8.5,8.9,11.8c4.7,5.6,14.3,4.7,14.3-4.1.1-3.3-.1-8.4,0-15s-1.1-9.5-.9-15.1,1.9-9.6,2-15-1.1-9.8-.9-15.1c.2-4.6,1.1-9.4,1.3-14.3s-1-9.5-.9-14.4.4-9.5.5-14.4,2.6-9.4,2.8-14.3.4-9.5.6-14.4-2-9.6-1.8-14.4.6-9.6.7-14.4-.6-9.6-.5-14.4c.1-4.8,3.2-9.5,3.4-14.3.1-4.8-2.5-9.7-2.4-14.5s1.2-9.6,1.4-14.3.9-9.6,1.1-14.4c.2-4.8.7-9.6.9-14.4s1.2-9.6,1.4-14.3-1-9.7-.8-14.4.4-9.7.5-14.4-1.7-9.8-1.5-14.4,1.2-9.8,1.4-14.3,2-9.9,2.2-14.3-.4-10.2-.3-14.4c.2-6.1-.6-11-.5-14.4.2-1.7.6-3.3,1.5-4.8,1.1-1.9,3-4.9,6.8-8.7,3.2-3.2,7.6-6,11.5-9.9s7.5-6.4,11.2-10.1,6.8-7.3,10.4-10.9,6.6-7.7,10.2-11.2,8.8-5.6,12.3-9.1,6.5-8.2,9.9-11.5,6.8-8.3,10-11.4c3-2.6,6.7-4.4,10.2-4.6,2.9-.6,8.1,3.3,11.4,7.2,2.7,3.1,4.2,7,7,10.3,2.3,2.9,6,5.1,9,8.7,2.9,3.5,4.7,8.1,7.8,11.9s6.3,7.1,9.2,10.7,5.2,8.3,8,11.7c3.4,4.1,7.2,7.2,9.7,10.3,3.9,4.5,7.6,9.5,13.6,10.6,5.8.7,11.5.8,17.1-.1s10.8-3,16.7-3.4c3.2-.5,10.3-1,17.1-1.7s13.7-1.9,13.9-5.9c-.1-2.4-1.6-5.7-3.6-7.8-2.5-2.8-6.2-6.1-10-10.5s-5.4-7.5-8.9-11.5-7.1-6.3-10.4-10.1-5.5-7.8-8.8-11.6-6.4-7.1-9.7-10.8-5.8-7.7-9-11.4c-3.2-3.7-7.8-6.1-10.9-9.7s-5.7-8-8.8-11.6-6.4-7.4-9.5-10.9-5.6-8.3-8.6-11.7-8.1-6.4-11-9.7c-3.8-4.3-6.5-8.5-9-11.3-2.9-3.4-6.6-7.8-10.6-8.5-.3,0,.1-.6,0-.6Z"/>
  <path d="M1017.6,1342.6c-6.3,1.6-10.7-.4-14.5-4.8-2.1-2.2-5.8-4.8-9.5-8.7s-5.5-5.9-8.8-9.3-6.3-5.4-9.5-8.7-3.7-7.9-6.8-11.2c-3.2-3.4-6.8-6.5-10.2-10.1s-6.7-6.7-10-10.2c-3.2-3.4-6.6-6.8-10-10.3s-7.3-6.2-10.6-9.7-7.1-6.4-10.4-9.9-4.4-8.9-7.7-12.4-8.2-5.4-11.4-8.9-6-7.5-9.2-11-7.4-6.3-10.6-9.7-6.6-7-9.8-10.4-4.8-8.7-8-12.1-8-5.7-11.2-9.1-7-6.8-10.1-10.1-6.7-7.2-9.8-10.5-7.2-7.1-10.1-10.2-6.7-8.4-9.2-11c-4.2-4.4-5.9-11-5.5-17.2.5-5.2,2.7-8,5.2-13.7,1.8-4,5.2-7.9,7.4-12.8s3.9-8.7,6-13.4,1.1-10.1,3.2-14.7,4.5-8.6,6.5-13.2,4-8.9,6-13.4,3.9-9,6-13.5,5.6-8.2,7.6-12.7,4.1-9,6.1-13.4,3.6-9.2,5.6-13.6,4.9-8.7,6.9-13,3.7-9.3,5.7-13.6,4.4-9.1,6.3-13.3,4-9.4,5.9-13.5,2.5-10.7,4.1-14.3c1.8-3.9,5.3-6.3,7.9-9s6-4,9.9-5.9c4.3-2.2,8-5.5,12.4-7.8s9.2-3.3,13.5-5.6,8.4-4.8,12.8-7.1,8.8-4,13.2-6.2,8.4-4.8,12.8-7.1,8.1-5.5,12.4-7.7,9.1-3.7,13.4-5.9,9.1-3.7,13.4-5.9,8.1-5.6,12.4-7.9,9.2-3.3,13.6-5.5,9-3.8,13.3-6,8.1-5.7,12.4-7.8,8.1-5.7,12.4-7.8c3.9-2,8.6-2.3,12.2-4.1s7.2-5.3,10.7-7.1,8.1-3.7,11.5-5.5,8.3-4.6,11.1-6.1c3.8-2.3,8.4-2.7,12.7-2.5s9.3.2,13,2.9c2.3,1.7,3.3,5.1,5.3,7.3,3.1,3.6,6.6,7.1,10,11.1,3.2,3.6,5.2,8.4,8.6,12.3s7.7,6.4,11,10.2,5.7,8.1,9,11.9,8.1,6.1,11.3,9.9,4.5,9.3,7.7,13c3.3,3.8,7.3,6.8,10.6,10.5s7.4,6.8,10.6,10.5,5.9,8.2,9.1,11.8,7.3,7.1,10.4,10.7c2.4,2.8,5,5.3,7.3,8s3.3,6.7,5.7,9.5c3.4,3.9,6.6,5.8,8.5,8.9,2.3,3.9,3.5,8.5,2,12.4s-4.7,6.9-9.2,8.9c-4.4,1.9-9.9,3-14.9,3.4-6.6.4-13.2.5-19.8,1.3-5.5.6-11,.9-16.4,1.7s-10.9.7-16.4,0c-7.5-1-11.9-5.7-16.6-11.3-2.9-3.6-7.6-6.8-11.2-11.2s-5-9.3-8.4-13.5-7.5-7.6-10.7-11.6-7-8.3-10.1-12.2c-3.8-4.7-7.2-9-9.9-12.3-2.3-2.5-4.1-7.4-7.4-7.7-1.2,0-2.8,1.4-4.3,2.6-2,1.6-3.5,5.3-6.8,8.6-2.6,2.6-7.2,4-10.4,7.2s-4.5,7-7.6,10.1c-3.5,3.4-8.8,5.9-12.9,10s-7.2,8-11.1,11.9-8,7.6-11.7,11.2-7.6,8.7-10.9,12c-4.2,4.2-5.5,6.6-6.4,8.3-.3,3.5,0,8.2-.2,14.1-.2,4.2-1.3,8.9-1.5,14.1s.1,9.2,0,14.2-1,9.2-1.2,14.2-.3,9.3-.4,14.2c-.2,4.6.2,9.4,0,14.2s-2.2,9.3-2.3,14.1.5,9.4.4,14.2,1.1,9.5,1,14.2-3.2,9.3-3.4,14.1,2,9.5,1.9,14.3-2.3,9.4-2.5,14.2.8,9.5.7,14.2c-.1,4.7,1.6,9.5,1.4,14.3s-.6,9.5-.8,14.2-2.9,9.4-3,14.1,1.4,9.6,1.3,14.3,0,9.5,0,14.2c-.1,4.8-1.9,9.5-2,14.2s-.7,9.6-.8,14.2,1.9,9.7,1.8,14.3-1.5,9.6-1.6,14.2,1.4,9.8,1.2,14.3-2.6,9.7-2.8,14.1c-.2,5.2.9,10,.6,14.3-.3,5.8-2.6,10.1-2.9,13.7-2,5.2-5.5,7.3-11.2,8.8-.5,0-.2.3-.3.3ZM825.7,1119.5c.3,1.8-.9,4.2.4,5.6,3.2,3.4,8.2,5.4,11.7,9.1s6.1,7.5,9.5,11.2,7.4,6.3,10.9,9.9,6.7,7,10.1,10.6,4.9,8.8,8.3,12.4,8.1,5.8,11.5,9.3,7,6.8,10.4,10.4,6.7,7.2,10,10.7,7,6.9,10.4,10.4,6.1,7.7,9.5,11.3,6.8,7.2,10.1,10.7,6.5,7.4,9.8,10.9,5.7,8.2,9,11.7,6.9,7.2,10.1,10.6,9.2,5.1,12.4,8.5c3.2,3.4,5.9,7,8.8,10.1s6.4,6.8,9.2,9.7,6.9,7.1,9.3,9.6c3.1,3.3,4.7,6.1,5.5,6.4.3-3.2.7-8.3,1-14.7.2-4.2,0-9.1.2-14.6s1.3-9.3,1.5-14.5,0-9.5.1-14.6.6-9.5.8-14.5.1-9.6.3-14.6-1.8-9.7-1.6-14.6,2-9.6,2.1-14.5,1-9.6,1.2-14.5-1.2-9.7-1.1-14.6.4-9.7.5-14.5-.5-9.7-.4-14.6,1.2-9.7,1.3-14.5,1.9-9.7,2.1-14.5.1-9.7.3-14.6-.4-9.8-.2-14.6.2-9.8.4-14.6,1.2-9.8,1.4-14.5c.1-5-.9-9.9-.8-14.6s-1-9.9-.8-14.6,2-9.9,2.2-14.5.8-10,1-14.5.5-10.2.6-14.5c.2-6.1-1.5-11.1-1.3-14.6,0-3.6.5-7,2-10.4,2.9-5.9,7.5-8,14.3-14.8,2.6-2.5,3.9-7.3,7.3-10.7s7.2-4.4,10.4-7.6c3-3,6-6.7,9.5-10.2s7.2-5.9,10.5-9.2,6.6-6.7,9.9-9.9,5.5-8.1,8.7-11.1,7.9-6.3,10.7-9c3.8-3.7,7.7-7.1,12.4-9.4,5.1-2.5,10.1-3.7,14.7-1.9s8.3,5.6,11.6,10c3,3.6,7,6.6,10.1,10.3s6.2,7.3,9.2,11.1,5.3,8.1,8.4,11.8,4.4,8.9,7.4,12.6c5.1,6.3,11.8,10.3,15.3,14.5,2.5,2.9,5.2,5.4,8.5,6.7,5.6,2.4,11.6,2.5,17.6,1.7,5.9-.9,13.1-2.2,18.4-2.7,3.3-.6,12.2.4,10.8-3.8-.5-1-1.1-2-1.9-3-2.5-2.9-5.7-7.3-10-12.2s-7.4-6.9-11.2-11.2c-2.9-3.3-5-7.6-8.1-11.2-3-3.4-5.5-7.3-8.7-10.8s-6.8-6.2-9.9-9.7c-3.3-3.8-6.5-7.7-9.8-11.5s-6.2-8-9.5-11.8-8.2-6.3-11.5-10.1-5.9-8.2-9.3-12-6-8.2-9.3-12c-3.5-4-5.9-8.5-9.3-12.2-3.9-4.1-6.1-2.9-11.3-.4-3,1.5-5.5,3.7-8.6,5.3-4.2,2.1-9.1,2.8-13.4,4.9-4.2,2.1-8.6,3.9-12.8,6s-7.6,5.8-11.8,8-8.7,3.6-12.9,5.8-8.3,4.5-12.5,6.6-7.7,5.7-11.9,7.8-9.2,2.7-13.4,4.9-7.8,5.5-12,7.6-9,3.2-13.2,5.4-8.3,4.6-12.4,6.8-9.3,2.6-13.5,4.7-7.1,7-11.2,9.1-9.1,3.1-13.2,5.2-9.1,3.1-13.2,5.2c-6.2,3.3-10.4,7.2-14.8,9.4s-9.7,5.9-14.7,9c-1.7,1.5-4.5,2-5.6,4.4-1.3,3.2-3.1,7.7-5.5,13.1s-4.2,8-6.4,12.7-1,9.6-3.1,14.2-4.6,8.1-6.7,12.6-3.7,8.6-5.7,13-5.2,8-7.2,12.3-2.8,9.1-4.8,13.4-3.5,8.8-5.5,13.1-3.6,8.8-5.6,13.1-5.8,7.9-7.7,12.1-4.5,8.5-6.4,12.7-4.6,8.5-6.4,12.7-2.1,9.7-3.9,13.8-5.5,8.5-7.2,12.4-4.6,10.5-5.8,13.8c0,.8,3.2-.4,3.2-.4ZM823.9,1121.2l.9,1.4c0-.7-.9-1.4-.9-1.4ZM1235.4,959.6c0,0,.1,0,0,0s-.2,0,0,0ZM1129.9,879.1l-.3-.2c0,0,.3.2.3.2ZM1139.9,805.3v.2l-1.5-.3c0,0,1.5.2,1.5.2Z"/>
  <path class="st0" d="M1413.9,797.1c2-.4,4.6.6,7.2,1.9,2.5,1.2,6.7.8,10.8,2.9,4.2,2.1,7.5,6.6,12,8.9s8.7,4.2,13.2,6.5,9,3.8,13.4,6.1,8.1,5.6,12.6,7.8,8.8,4.3,13.2,6.6,10,2,14.4,4.2,7.5,6.9,11.9,9.2,8.6,4.7,13,6.9,9.1,3.9,13.4,6.1,9.4,3.3,13.7,5.5,8.2,5.6,12.6,7.8,9.2,3.8,13.5,6,9.4,3.5,13.6,5.7,8.6,5.3,12.8,7.4,9.5,3.6,13.6,5.7,8.8,5.3,12.8,7.3c3.1,1.8,2.8,4.4,4.5,7.6,1.7,3.7,3.4,8.1,5.7,12.9,1.8,4,5.4,7.5,7.5,12.1s5,7.9,7,12.4c1.9,4.1,3.1,8.8,5.1,13.2s4.2,8.3,6.2,12.7,1.8,9.5,3.7,13.8,4.7,8.2,6.6,12.5,4.5,8.3,6.5,12.6,4.6,8.3,6.5,12.6c1.9,4.3,3.9,8.6,5.9,12.9,2,4.3,3.3,8.9,5.2,13.2,2.3,5.3,2.6,11,4.7,15.5s5.9,9.3,8,13.9,2.8,10.4,5,15.3,6,8.8,8.1,14c1.4,4.7.3,7.6-2.7,11.1-2.6,2.8-6.2,6.2-10.3,10.6s-7.7,5.6-11.4,9.5-4.9,8.5-8.5,12.3-6.7,6.9-10.2,10.6-7.3,6.4-10.8,10-6.3,7.4-9.7,11c-3.3,3.5-5.9,7.9-9.3,11.5s-8.2,5.7-11.6,9.3-6.6,7.2-10,10.8-5.5,8.3-8.9,11.9c-3.4,3.6-7.3,6.6-10.7,10.2s-6.8,7.1-10.2,10.7-6.9,7.1-10.2,10.6c-3.4,3.6-6.2,7.8-9.5,11.3s-7.5,6.5-10.9,10-7.3,6.8-10.6,10.2-7.6,6.5-10.9,10-5.6,8.5-8.8,11.9-6.9,7.4-10,10.8c-4.7,5.6-11.5,5-11.5-3.8-.1-3.3-1.5-8.4-1.7-15s-1-9.4-1.2-15,1.4-9.7,1.2-15.1-2.5-9.7-2.7-15c-.2-4.6,1.3-9.5,1.2-14.4s-1.2-9.4-1.4-14.3.5-9.5.4-14.4-.4-9.5-.5-14.4.2-9.5,0-14.4-2.5-9.5-2.7-14.3.9-9.6.8-14.4c-.1-4.8-.6-9.6-.7-14.4-.1-4.8-1.2-9.6-1.4-14.3s1.9-9.7,1.8-14.4-1.7-9.6-1.8-14.3-.2-9.6-.3-14.4,0-9.6-.2-14.4.7-9.7.6-14.4-.2-9.7-.3-14.4-.8-9.7-.9-14.4-2.1-9.7-2.3-14.3-.2-9.8-.3-14.4c-.2-5.1,1-10,.8-14.4s-.7-10.1-.9-14.4c-.2-6.1,1.4-11,1.2-14.5-.2-1.7-1.1-3.3-2-4.8-1.1-1.9-2.8-5.1-6.5-9-3.2-3.2-7.3-6.3-11.2-10.2s-7-7-10.7-10.7-8.4-5.8-12-9.4-7-7.2-10.6-10.8-6.9-7.5-10.4-10.9-6.4-8.3-9.8-11.6-7.8-7.4-10.9-10.4c-3-2.6-6.7-4.1-10.2-4.4-2.9-.6-6.9,4.1-10.2,7.9-2.7,3.1-4.9,6.3-7.6,9.7s-6.4,4.8-9.3,8.4c-2.9,3.5-6,7.2-9,10.9s-5.5,7.8-8.4,11.4-5.4,8.1-8.2,11.6-6.3,8-8.8,11.1c-3.9,4.5-8.2,8.1-14.3,9.2-5.8.7-11.4,1.9-17,1s-10.8-3.3-16.7-3.7c-3.2-.5-10.4-.6-17.1-1.2s-14.8-2-15-6.1c.1-2.4,3.7-4.8,5.7-7,2.5-2.8,4.4-7.6,8.3-12s7.2-6,10.6-10,4.9-8.3,8.2-12.1,6.1-7.3,9.4-11,8.2-5.6,11.4-9.3,6.3-7.3,9.5-11,4.6-8.9,7.7-12.5,6.4-7.4,9.5-10.9,7.4-6.5,10.5-10.1,5.8-8.1,8.8-11.6,7.1-7.2,10-10.5,6.3-8.7,8.8-11.6c2.9-3.4,7.6-8.2,11.7-8.9.5,0,.2,2.1.2,2.1Z"/>
  <path d="M1533.5,1344.8c-5.6-1.6-10.2-5.5-12.1-10.6-.3-3.6-.7-8.4-1-14.2s-1.9-8.9-2.1-14.1c-.2-4.4,2.7-9.3,2.5-14.3s-3.3-9.1-3.5-14.1c-.2-4.6,2.4-9.4,2.2-14.3s-1.9-9.3-2-14.2c-.1-4.6-1-9.4-1.2-14.2s0-9.4-.1-14.2c-.1-4.7-.8-9.4-1-14.2s.6-9.5.4-14.2-1-9.4-1.1-14.2c-.1-4.7,2.2-9.5,2.1-14.3s-1.1-9.4-1.2-14.2.6-9.5.5-14.2c-.1-4.8-1.4-9.5-1.6-14.2s.2-9.5,0-14.2.4-9.5.2-14.2-2.2-9.5-2.3-14.2-.8-9.5-.9-14.2,1-9.6.8-14.2.5-9.6.3-14.2-2.2-9.6-2.3-14.1,1.4-9.8,1.2-14.3-1.3-9.8-1.5-14.2-1.9-9.9-2.1-14.1c-.3-5.9,2.5-11.2,2.1-14.6-.9-1.7-5.7-2.3-9.9-6.5-3.3-3.3-6.1-8.3-10.4-12.5s-7.9-7.1-11.9-11-7.3-8.1-11.1-11.8-7.8-8.1-11.3-11.6c-3.1-3.1-6.4-5.8-9.2-8.5s-5.7-6.8-8.3-9.4c-3.3-3.3-6.5-5.1-8.5-6.7-1.5-1.2-2.5-2.6-3.7-2.6-3.3.4-5.6,4.2-7.9,6.7-2.7,3.3-6.7,7-10.6,11.7s-5.4,8.8-8.9,13.1-7,7.9-10.3,12-6.9,8.3-10,12.2-6.8,8.8-9.8,12.4c-4.7,5.6-9.3,10.8-16.8,11.8-5.6.7-11.3,1.5-16.8.7s-10.5-4.5-16.1-5.1c-6.6-.8-13.5,1.6-20,1.3-4.9-.3-9.9-3.3-14.3-5.2-4.5-2-9.2-3.8-10.5-7.4s-.4-9.4,1.9-13.3c3.1-4.2,7.1-8.7,11-13.1s7.1-9.2,10.6-13.3c3.1-3.6,7.9-6.1,11.3-9.9,3.2-3.6,7.4-6.6,10.7-10.4s6.2-7.6,9.6-11.4,4.6-9.1,7.9-12.9,8.3-5.9,11.6-9.7,5.3-8.6,8.6-12.3,6.3-7.7,9.6-11.4,6.7-7.4,9.9-11.1c3.4-3.9,8.2-6.2,11.4-9.9s5.6-8.6,8.7-12.2c1.9-2.2,3.2-5.2,5.5-6.9,3.7-2.6,8.4-3.3,12.6-3.5s8,1.8,11.8,4.2c2.9,1.5,6.7,3.5,11.4,5.9s8.4,1.3,12.5,3.4,6,6.4,10,8.4,8.5,1.6,12.4,3.6c4.3,2.2,8.1,5.3,12.5,7.6s9.2,3.2,13.6,5.5,7.4,6.9,11.7,9.1,8.7,4.3,13.1,6.5,9.8,2.1,14.2,4.3,8.8,4.1,13.2,6.3,8.4,5,12.7,7.2,8.9,4.1,13.2,6.3,8.7,4.4,13,6.7,8.8,4.2,13.1,6.4,8,5.9,12.3,8.1,9.1,3.7,13.4,5.9c4.4,2.2,7.9,6.1,12.2,8.3,3.9,1.9,7,3.6,9.6,6.3s6.2,4.8,8,8.8c1.6,3.6,1.3,9.2,3.7,14.5s4.5,8.3,6.7,13.1c1.9,4.2,3.2,9,5.3,13.7s5.5,8.1,7.6,12.7,3.8,8.9,5.9,13.5,4,8.9,6.1,13.4,3,9.4,5,13.9,4.5,8.8,6.5,13.2,5.7,8.3,7.7,12.7,4.5,8.8,6.5,13.2,1.8,10.1,3.8,14.4,4.4,9,6.3,13.3,6,8.4,7.9,12.6,2,10.4,3.8,14.4c2.5,5.7,5.8,8.2,6.3,13.3.4,4.5-1.4,9.2-3.4,13-2.5,3-4.7,7.6-8.6,11.9s-6.9,6.3-10.5,10.2-7.4,6-10.9,9.8-6.3,7.2-9.8,10.9-5.1,8.4-8.5,12.1-6.7,7-10.1,10.6-7.2,6.5-10.7,10-7.5,6.2-10.9,9.8-6.6,7.2-10,10.7-5.4,8.3-8.8,11.8-6.9,6.9-10.3,10.4-7.7,6.2-11,9.7-7.6,6.3-10.9,9.8c-3.4,3.6-5.7,8.2-9,11.7s-8,6-11.2,9.5-5.5,8.4-8.7,11.9c-3,3.2-4.9,7.4-7.6,10.3s-6.5,6-9.2,8.8-7.5,5.3-10.1,8c-3.7,3.9-4.9,8.6-7,10.8-3.9,4.5-9.8,5.4-16.2,3.6-.5,0-.4,1.9-.5,1.9ZM1424.6,864.2c4.4-.3,8.1,1.4,11.5,3.8s5.6,6.3,8.5,9.2c3.2,3.2,7,6.7,10.9,10.5s8.4,5.6,12.1,9.2c3.5,3.4,7.7,6.4,11.4,10s7.1,7.2,10.7,10.7,6.6,7.8,10.1,11.2,6.4,8.2,9.7,11.6,7.8,7.1,10.9,10.4c3.3,3.9,5.1,7.3,6.3,11.6.2,4.3,2.7,8.8,2.9,13.9s-.9,9.2-.7,14.2,1.2,9.2,1.4,14.1-.6,9.3-.4,14.1,1.1,9.3,1.3,14.1.9,9.3,1,14.1-.9,9.4-.8,14.2-1.5,9.4-1.4,14.2.8,9.4,1,14.1,1.7,9.3,1.9,14.1.7,9.4.8,14.1c.1,4.7.2,9.4.3,14.1s-.9,9.5-.8,14.2c.1,4.7.8,9.4.9,14.1.1,4.7,1.7,9.4,1.9,14.1s0,9.5.1,14.1.3,9.5.4,14.1-.4,9.5-.3,14.1c.1,4.8.7,9.5.8,14.1s-1.9,9.6-1.7,14.2.4,9.6.5,14.1.4,9.6.5,14.1c.2,5,1.6,9.7,1.7,14.1s.5,10,.7,14.1c.2,6-1,10.8-.9,14.2,0,1.1,1,1.9,1.1,2.4.2.9.1.1,1-.6,1.3-1.1,5.4-2.8,9.8-7.4,2.9-3.1,4.9-8.4,9.1-12.8s8.7-5.4,12.5-9.5,6.7-7.5,10.4-11.4c3.3-3.5,5.1-8.7,8.6-12.4,3.3-3.5,7.7-6.2,11.2-9.9s6.4-7.5,9.9-11.1,7.8-6.2,11.2-9.9,5.8-8.1,9.3-11.7,6.2-7.8,9.6-11.4,7.1-7,10.5-10.6c3.4-3.6,7.9-6.2,11.3-9.8s6.6-7.5,10-11.1,6.4-7.7,9.8-11.2,7.9-6.4,11.2-9.9,5.4-8.7,8.7-12.3,9.1-5.3,12.4-8.8,5.4-8.9,8.7-12.3c1.6-1.8,4.1-2.8,3.5-5.4-1.5-3.5-4.4-7.5-6.7-12.7-1.7-4-3.7-8.3-5.8-13.1s-1.5-9.5-3.6-14.1-5.6-7.8-7.6-12.3-4.2-8.5-6.2-12.9-3.8-8.7-5.8-13.1c-2-4.3-4.3-8.5-6.3-12.9-2-4.3-3.1-9.1-5.1-13.4s-3.9-8.7-5.9-13.1-3.6-8.9-5.6-13.2c-2-4.4-2.6-9.4-4.6-13.7s-4.1-8.9-6-13-6.9-7.7-8.8-11.7-3.7-9.4-5.4-13.3-4.4-9.7-5.9-13c-2.2-3.9-3.4-3.5-8.1-6.1-4.2-2.2-7.7-5.9-12-8.1s-8.5-4.3-12.8-6.5-8.7-3.9-13.1-6.1-8.1-5.2-12.4-7.4-8.7-4-13-6.1-8.4-4.6-12.7-6.8-8.6-4.2-12.9-6.3-9.5-2.5-13.8-4.6-7.8-5.8-12.1-8-8.2-5-12.5-7.2-9.2-3.2-13.4-5.4-8-5.4-12.3-7.6-8.8-3.9-13.1-6.1-8.4-4.8-12.6-6.9-8.8-3.9-13.1-6.1-9.2-3.3-13.4-5.4c-1.7-.9-2.9-2.4-4.5-3.2-5.1-2.5-6.9-3.4-10.8.8-.4.5,0,1.9-.5,2.5-2.8,3.2-6.5,5.6-9.3,8.7s-6.1,5.9-8.9,9.1-4.5,7.2-7.4,10.5c-2.9,3.3-4.9,7.7-8,11.2s-7.4,5.6-10.4,9.1-4.9,7.8-7.9,11.2-6.3,6.6-9.3,10-5.8,7.1-8.8,10.5-6.6,6.4-9.6,9.8-4.8,8-7.8,11.4-7.2,6-10.1,9.3-5.9,7.1-8.8,10.5c-5.8,6.4-1.9,7.9,7.2,8.8,5.6.5,12.4-.3,18.4.7,6.9,1.1,12,2.9,16.4,2s7.2-5.1,11.7-11.1c2.9-3.5,8.4-5.8,11.9-10.2s5.6-8.5,8.9-12.6,5.6-8.7,8.9-12.7,7.3-7.5,10.5-11.4,6.2-8.8,9.2-12.4c4.5-5.6,10.9-11.1,18.1-11.3.1,0,0,1,.1,1ZM1728.1,1121l1.3,1.6c0-.8-1.3-1.6-1.3-1.6ZM1316.8,961.4s-1.3-1.6-1.2-1.6c0,.8,1.2,1.6,1.2,1.6ZM1412.2,803.5l1.3,1.6c0-.8-1.3-1.6-1.3-1.6Z"/>
  <g>
    <path class="st0" d="M973.7,965.6"/>
    <path class="st1" d="M973.7,965.6"/>
  </g>
  <path class="st0" d="M1047.1,1184c3.7-2.4,7.7-4.8,12.3-6.7s8.5-3.4,13.2-4.7,9-2,13.8-2.7,9.2-1.3,14-1.6,9.3,0,14,0,9.4-.3,14.1,0,9.2,1.9,13.8,2.7,9.4,1,13.9,2.2,9.2,2.4,13.5,4,8.5,4.2,12.6,6.3,8.2,4.7,11.9,7.3,7.4,5.7,10.6,9c2.4,2.7,5,5.3,7,8.3s3.8,6.3,5.7,9.3c2.2,3.7,4.3,6.2,5,5.8.7-1.7-1.1-7.9-3.5-15.8s-2.9-9.9-4.9-15.3c-1.8-5-4.3-9.9-6.4-14.7s-4.7-10.2-7-14.4c-3-5.4-6.5-10.4-10.2-15.2"/>
  <path d="M1225.3,1235c-5.2-.5-8.7-4.8-12-9.4s-6-9.5-8.8-13.1c-2.9-4.1-6.6-7.3-10.2-10.5s-7.8-5.8-12.1-8.2-8.6-4.4-13.3-6.1-9.1-3.5-13.9-4.6-9.6-1.9-14.4-2.7c-4.9-.8-9.8-.9-14.6-1.4-5.3-.4-10.6-.7-16-.7s-10.7.2-16,.7-10.7,1-15.9,2-10.5,2.6-15.4,4.4c-5.8,2.6-12.7,3.3-17.4-1.7-2.7-2.8-3.6-6.6-1.7-10,1.3-2.4,4.1-4,6.8-5.3,3.9-1.9,8.2-4,13.1-5.5s9-2.4,13.9-3.3,9.3-1,14.2-1.5,9.4-1.1,14.2-1.2,9.5-.5,14.3-.3,9.5,1.2,14.2,1.8c4.6.5,9.2.3,13.7,1.2s8.8,2.7,13.2,3.9,8.8,2.4,13.1,3.9,8.9,2.4,13,4.3c7.5,2.6,8.8,1.4,8.3-2.4s-2.2-7.1-3.2-11.4c-.8-4-.7-8.4.9-12.1,3.7-7.8,10.2-4.6,14,1.8,2.5,4,5.2,8.4,7.5,13.1s4.1,9.1,6,13.9,3.2,9.6,4.8,14.3,3.3,9.7,4.6,14.4,2.8,10.1,3.7,14.6c1.3,6.7-.7,16.8-8.5,16.8,0,0,0,.3-.1.3Z"/>
  <path class="st0" d="M1508,1183.8c-3.7-2.4-7.7-4.9-12.3-6.8s-8.6-3.2-13.3-4.4-9.1-1.7-13.8-2.4-9.1-1.6-13.9-2-9.3-.2-14-.2-9.4-.1-14.1.3c-4.7.4-9.3,1-14,1.8s-9.1,2.2-13.6,3.4-9.2,2.2-13.5,3.8-8.5,4.1-12.6,6.2-8.5,4.2-12.2,6.9c-3.9,2.7-7.4,5.9-10.6,9.2-2.4,2.7-4.9,5.4-6.9,8.5s-3.7,6.3-5.6,9.4c-2.2,3.7-3.5,5.8-4.1,5.5-.7-1.7.5-7.5,2.9-15.4s2.9-9.9,4.9-15.3,3.4-10.3,5.5-15.1,5.3-9.9,7.6-14.2c3-5.4,6.5-10.4,10.2-15.3"/>
  <path d="M1329.6,1234.5c-7.7-.1-9-9.7-7.6-16.4.9-4.5,1.4-9.6,2.8-14.8s2.5-9.6,4.1-14.5,3.9-9.3,5.8-13.9c1.9-4.7,4.1-9.3,6.2-13.7s4.7-9.2,7.1-13.2c2.9-4.8,7.3-9.3,11.9-5,3.7,3.9,3.1,9.9,2.1,14.9-1.2,6.3-3.4,10.6-2.2,14,1.1,2.6,5.7,1.1,10.8-.9s9-3.8,11.2-4.3c4.2-1.5,8.6-3.3,13.2-4.5,4.4-1.1,9.2-1.1,13.9-1.8s9.1-1.5,13.8-1.9,9.2-1,13.9-1.1c4.7-.2,9.3-.3,13.9-.2s9.4.2,13.9.7,9.4,1.1,13.8,1.9,9.1,2.6,13.4,3.9,9,3.1,12.9,5.1c2.7,1.3,5.6,2.7,6.9,5.1,2.1,3.9,1.5,8-1.2,10.8s-7,3.9-10.9,3.1c-2.4-.4-4.5-1.9-6.8-2.8-3.7-1.4-8.2-2.6-13-3.7s-8.6-1.7-13.3-2.3c-4.3-.5-8.9-.8-13.6-1s-9,.2-13.7.3-9,.2-13.6.6-9.1.7-13.6,1.5-9,1.8-13.4,3-8.7,3-12.9,4.6-8.3,3.8-12.3,5.9c-4.1,2.2-7.7,4.9-11.1,7.7s-7.2,5.6-10,9.2c-3.1,3.7-5.4,9.8-8.8,14.8-3.6,5.2-8.2,9.6-13.8,10-.3,0,0-.9-.1-.9Z"/>
  <path class="st0" d="M1148,1386.9c-.4-3.6-1.3-9.4-.9-14.7s2.1-11.7,5.5-13.2c2.2-.7,4.7-.2,6.7.6,3.6,1.6,8.4,3.8,14,6.5,4.5,2.2,8.7,5.8,13.8,8.1s9.8,3.8,14.8,5.9,9.6,4.6,14.6,6.5,10.6,2.2,15.5,3.7c4.3,1.4,8.6,2.9,13,3.9s8.8,2.3,13.3,3.1,9,1.9,13.5,2.2,9.1-.6,13.6-.8,9.1.2,13.6-.5c4.8-.7,9.3-2.9,14.1-4.1,4.7-1.1,9.5-1.9,14.2-3.3s9.6-2.2,14.1-3.9,9.1-3.8,13.5-5.6,8.7-4.7,13.1-6.6,9.7-2.8,13.9-4.6,9.2-4.4,13.3-6.1,9.7-4.5,13.5-5.7c4.9-1.5,7.9,1.7,8.8,6.7,1,4.9,1.8,11.3.9,17.6s-3.3,12.1-5.8,16.7c-2.3,3.6-4.7,7.8-8,12.1-2.7,3.6-6.2,7-9.6,10.9s-6.6,6.8-10.1,10.4-6.5,7-10,10.4-7,6.5-10.8,9.6c-3.7,3.1-7.8,5.5-11.7,8.4s-7.6,6-11.6,8.5-7.9,5.6-12.2,7.8-8.8,4.2-13.2,5.9-9.1,3.6-13.7,4.7c-4.2,1-8.5.9-12.7,1.2s-8.4,0-12.7-.3-8.4-.9-12.5-1.9c-4.9-1.2-9.7-2.7-14.5-4.5s-9.4-3.6-14-6-9-4.7-13.3-7.5-7.7-6.6-11.8-9.6-8.5-5.6-12.3-8.8-7.9-6.4-11.6-9.8-6.6-7.8-10-11.4-7.5-7-10.8-10.7c-4.2-4.9-8.4-9.6-12-14.8-3.7-5.3-4.5-10.1-5.3-16.7,0-.2-.4,0-.4-.1Z"/>
  <path d="M1283.2,1498.9c-4.6,0-9.3,0-14-.7s-9.3-1.5-13.8-2.9-8.3-4.4-12.7-6.2-9-2.7-13.2-4.9-8.2-4.5-12.2-7.1-7.3-5.9-11.1-8.6-7.7-5.3-11.3-8.3-6.8-6.5-10.3-9.6-7.5-5.9-10.7-9.1-7-6.5-10-9.9-5.1-8.2-7.9-11.7-6.9-7-9.2-10.7-4.6-9-6.2-12.6c-1.4-4.5-2-9.1-2.3-13.9s.3-9.4.7-14.1c.5-5.3.7-9.7,2.8-12.7s6.7-4.9,11.5-5.2,8.2-.6,13,1.5c4.2,1.9,8.4,4.2,12.7,6.2s8.6,3.7,12.9,5.6,8,5.1,12.3,7,9.1,2.6,13.5,4.3,8.5,4.2,12.9,5.7,8.9,3.1,13.5,4.3,9.4,1.3,14,2.1,9.3,1.2,14,1.6,9.4,1.6,14.1,1.4,9.3-1.7,14-2.4c4.8-.7,9.7-.8,14.3-2s9.1-3.1,13.7-4.6,9.3-2.5,13.8-4.3,8.7-4.1,13.2-6c4.4-1.9,8.5-4.7,12.8-6.7s9.2-3.1,13.6-5,8.9-3.7,13.3-5.5c4.1-1.6,7.7-4,11.4-4.8s8.6-.7,12.3,1.1c3.8,2.3,5.9,6,7.4,10s1.9,8.1,1.9,12.3c0,4.4.3,8.8-.4,12.6-.7,3.8-1.4,7.7-2.7,11.3s-4.1,6.7-6.2,9.8c-2.2,3.4-4.8,7.4-8.1,11.6s-5.3,7.5-8.6,11.3-5.7,7.3-9.1,10.9-6.8,6.5-10.3,9.8-6.8,6.6-10.4,9.7-7.5,5.8-11.2,8.7-8.3,4.7-12.2,7.3-7.4,6-11.5,8.3-8.9,3.5-13.1,5.4-8.6,4-13,5.4-9,3.2-13.6,3.9-9.4.3-14.1.2c-.2,0-.1.3-.3.3ZM1156.8,1386.3c.7,4.8,3.4,8.9,6.2,13s5,8.4,8,12.2c3.2,3.8,6.9,7.5,10.5,11.4s7.7,6.8,11.5,10.4,6.7,8,10.7,11.3,8.3,6.3,12.4,9.4,8.2,6.5,12.5,9.3c4,2.5,8,5,12.1,7.2s9,3,13.3,4.7,8.4,4.3,13,5.4,9.3.8,14,1c4.8.2,9.5-.6,14.5-1.6s9.7-1.1,14.5-3,8.9-4.1,13.3-6.4,8.3-5.1,12.5-7.8,8.2-5.4,12.1-8.4,7.2-6.8,10.9-10,8.4-5.5,11.8-8.9,6.6-7.5,9.9-11,6.7-7.5,9.7-11.1,6.3-8.1,8.8-11.8,6.7-8.5,8.5-12.2c1.6-4.5,2.4-10.2,1.8-14-.7-4.2-3.9-6.8-11.3-3.9-4.5,1.9-8.7,4.9-13.3,7s-9.8,2.5-14.4,4.5-8.5,5.4-13.2,7.3-9.2,3.9-13.9,5.7-9.5,3.1-14.3,4.6c-4.8,1.5-9.6,2.9-14.4,4.1s-9.9,1.8-14.8,2.6-9.9,1.9-14.9,2.1-10-.2-15-.6c-4.8-.5-9.4-2.5-14.3-3.4s-9.7-1.1-14.4-2.4-9-3.7-13.7-5.2-9.5-2.3-14.1-4-9.1-3.6-13.6-5.4-9.2-3.4-13.6-5.4c-3.3-1.3-7.1-3.7-10.9-5.5s-8.2-3.5-11.4-3.9c-6.8-.9-8.4,6.6-7.1,12.6,0,0-.1,0,0,.2Z"/>
  <path d="M1280.7,1466.4c-5,0-9-2.2-12.1-6s-4.7-9-7.4-12c-3.4-4-7.7-3.6-11.2-1.7s-6.7,4.7-9.4,7c-4.1,3.7-9.1,7.8-14.2,5.8-3.1-1.2-5.4-4.1-7-7.1-1.9-2.9-3.1-7.9-4.6-12.4s-3.6-10.4-7.4-10.8c-4.5-.4-9.2,2.5-13.8,2.9-5.9.9-10.8-1.6-13.5-7-2-3.2-3.1-8.1-4.6-12.3s-3-9-7.8-9.5c-4.8-.7-11.7.5-16.7-2.5-4.1-2.5-7.2-6.3-8.8-10.7-1.8-5.1-1-11.2.6-16.1,1.5-4.5,3.3-8.5,7.5-8.2,7.1,1.7,10.7,10.1,18,11.2,8.4,1.2,13.4,1.6,16.9,4.1,3.4,2.5,5.1,7.3,8.9,14.9,2,4.2,5.9,6,10.5,5.8,5.1-.3,9.5-.6,13.2.5s6.2,4.2,8.9,9.3c2.8,5,5,9.8,7.2,11.8,4.2,4,9.9-4.4,13-7,3.6-3.8,7.2-6,10.5-6.7,6-1,9.3,3.4,13.2,10.5,4.2,8,6.5,13,8.9,14s5.3-2.4,10.1-12.3c3.9-7,7.1-10.9,10.6-11.6s10.1,3.1,14.1,7.4,8.1,11,10.9,9.9c2.1-1,2.9-3.1,3.7-5.2,1-3.1,2.5-6.6,3.7-10.3s2.7-6.9,5.2-9.4c3.7-3.9,7.7-4,11.9-3.4s8.6,1.5,12.5-.5c2.8-1.8,4.1-5.4,5.6-8.7,3-7.5,6.7-9.3,10.6-10.4s8.7-1,15.4-2c7.5-1.3,10.9-8.6,15-14.1,2.9-4,7.4-8.9,11.8-6.2,3.8,2.8,4.1,8,3.2,13.3s-3.4,9.7-4.5,13.5c-2.2,5.9-4.6,11.4-9.7,15.1-5.2,3.7-11.3,3.6-16,5.3-4.5,1.3-7,5.2-8.4,9.5-2,6.6-3.2,13-6.5,16.4-3.3,3.5-8.9,4.4-17.1,1-5.7-2.3-11.1-4.7-13.7,2.3-1.7,4-1.6,10.3-3.5,15.7s-5.3,10-10.4,11.9c-4.3,1.6-8-.5-11.6-3s-6.5-5.8-9.6-8.1-8.3-4.5-12.2-1.3c-3.1,2.7-5.8,7.1-8.8,10.7s-5.9,6.9-10.8,7c-.2,0,0-.2-.1-.2Z"/>
  <path d="M1280.9,1272c4,0,9.1,0,14.7.4s9.6,1,14.6,1.6,9.8,1.6,14.3,2.9,9.8,2.9,13.6,5.4,7.9,6.5,9.4,11.1c.9,4.2-.2,8.7-2.2,13s-4.4,7.3-7.6,10.8-6.1,6.3-9.6,9.1-7.1,5.4-10.7,7.8-7.9,4.5-11.6,6.4-8.7,4.2-12.1,5.3c-4.4,1.7-8.7,2.7-13.1,2.4s-8.9-1.2-13.2-2.7-8.3-3.6-12.2-5.7c-3.8-2.1-7.6-4.6-11.5-7.2s-7.2-5.4-10.6-8.3-6.8-6-9.6-9.4-5.3-7.4-7.1-11.4c-2.4-5.9-2.1-10.9.5-14.9s7.4-6.8,12.4-9.1c4.7-2.1,10-3.8,14.6-4.8,4-.8,8.1-1.2,12.2-1.7s8.1-.9,12.3-1,8.2-.3,12.3-.4c.1,0,.1.4.2.4Z"/>
  <path class="st0" d="M954.4,1184.9c-1.2.2-3,1.1-4.9,2.9-3,2.9-6,6.8-8.5,10.5-2.6,3.6-3.8,7.6-4.6,11.9s-1.7,8.5-1.8,12.8.3,8.9-.2,12.9c-.5,6.6-3.8,12.2-8.7,16.7-3.4,3.2-7.2,6.9-11,10.4s-8.1,7-11.4,10c-5.8,5-9.7,7.9-10.1-2.5,0-4.7-.3-9.9,0-15s.8-10.4,2.8-14.7c2.7-5.8,7.3-9.1,9-14.2,2.7-7.4-2.3-13.6-11-11-5.3,1.6-9.7,6.4-13.9,10.1-4.2,3.8-8.1,6.1-10.2,9.6s-2.2,7.5-1.8,13.7c0,4.2-.2,8.9-.1,13.8s.6,9,.7,13.8-.6,9.2-.5,13.8.9,9.2,1,13.8,0,9.4.1,13.8.2,9.5.2,13.8c.2,9.6-.3,11,6.6,4.1,2.8-2.8,6.8-6.1,11-10.3s7.1-6.6,10.9-10.4,7.1-6.9,10.8-10.5,7.1-7.1,10.7-10.6,7.2-7.3,10.7-10.7,7.6-7.1,11-10.4,7.9-7.7,10.8-10.5c2.5-2.6,4.4-4.8,5-8.4.3-4.3-.2-9.5-.1-14.9s0-9.8,0-14.8.6-10.1.6-14.8-.7-10.5-.6-14.8c-.2-2.5.9-10.4-2.3-10.1-.2,0,0,.5,0,.5Z"/>
  <path d="M865.5,1350.9c-.4-.3,0-1.4-.2-2.6-.2-2.1-1-4.7-1-7.2,0-3.7.4-8.4.3-13.8s0-8.9,0-13.8-.7-9.1-.8-13.8.3-9.2.2-13.8-.4-9.3-.5-13.8-.2-9.6-.2-13.8-.9-10.2-.9-13.8c0-3,.3-5.9,1.3-8.5,1.4-3.8,5.7-7.5,9-10.4,3.5-3.1,7.9-6.9,11.9-10.3,4.2-3.4,8.9-7.5,14.7-6.4,4.9,1.1,9.6,4.3,12.2,8.4,3.2,5.5,2,9.7-.9,13.6s-6.6,6.3-9.2,11.1-3,8.3-3.1,14c-.2,10.9,3.9,11.3,10.9,5.3,3.5-3.1,6.9-6.8,10.4-10.3s7.3-6.8,9-11.4c1.3-3.7,1.8-7.9,2-12.1s-.6-8.2-.4-12.2.9-8.3,2.3-12c2-5.3,6-9,9.9-13.3,2.3-2.6,4.1-5.9,6.5-8.4,2.8-2.6,11-12.3,12.7-8.5.9,2,.8,7.7.8,15,0,5.1-.5,10.4-.5,15.8s0,10.5,0,15.8,0,10.6,0,15.8c0,5.4.2,10.6.1,15.8,0,7.7-2.4,10-7.5,14.8-2.8,2.8-5.9,5.2-8.7,8s-5.2,5.8-8.1,8.6c-3.4,3.3-7.3,6.2-10.8,9.6s-6.7,6.9-10.2,10.3-7.2,6.5-10.6,9.8-6.5,7.3-9.9,10.6c-4.3,4.2-8.4,7.2-11.9,10.5s-7.2,7.5-11.1,11.2c-4.1,3.9-6.3,6.5-7.3,5.9-.2,0-.2,0-.2,0ZM874.5,1237.2c-2,3-2.7,7.5-2.7,12.1s.9,8.6.9,12.3c0,4.1.5,8.4.6,13s-.3,8.6-.3,13,0,8.7,0,13,.2,8.8.3,13,.3,9,.5,13c.3,6.1,3.8,2.7,6.4.2,2.8-2.8,6.2-6.9,10.7-11.4s7.1-7.2,11-11.1,7.4-7.2,11.2-10.9,7.2-7.7,10.8-11.3,8.3-6.9,11.7-10.3c4.3-4.3,8-8.1,11-11.1,2.3-2.5,4-4.8,4.9-8,.9-2.9.8-9.7.8-14.8,0-4.6-.2-10.1-.2-15.5s0-11.1,0-15.5c-.1-3.1.6-7-.8-9.5-2.2-3-7.5,1.9-10,10.7-1.2,3.9-1.5,8.1-1.7,12.3s.7,8.3.6,12.3-.9,8.3-2.1,12.2c-1.7,4.7-5.7,7.7-9.3,11.1-2.8,2.6-6.3,6-9.9,9.4s-6.8,6.2-10.1,9.3-7.2,6.7-10,9.3c-4.2,3.8-6.8,6.4-8.3,5.8-1.3-.5-1.5-3.1-1.7-7.4-.1-3,.2-6.7.2-10.9,0-6.7-.2-14.2,0-20.8.2-4.6.4-8.5,2.2-12.5,1.4-3.1,3.1-5.9,4.8-8.8,7.3-12.4-1.4-8.5-7.9-4.2-4.7,3.2-10.4,7.8-13.1,12.1-.1.2-.3,0-.3,0Z"/>
</svg>