<?xml version="1.0" encoding="UTF-8"?>
<svg id="Layer_1" xmlns="http://www.w3.org/2000/svg" version="1.1" viewBox="0 0 127 192">
  <!-- Generator: Adobe Illustrator 29.3.1, SVG Export Plug-In . SVG Version: 2.1.0 Build 151)  -->
  <defs>
    <style>
      .st0 {
        display: none;
      }
    </style>
  </defs>
  <polygon id="arrow" class="st0" points="0 192.2 50.4 141.5 42.9 45.7 59.6 57 50.1 0 2.4 48 25.1 46 0 192.2"/>
  <g id="arrow1" data-name="arrow">
    <path d="M.3,192.5c.5-.5,2.2-2.1,4.7-4.5s2.8-3,4.5-4.7,2.4-3.6,4-5.2,3.2-2.8,4.8-4.4,2.8-3.3,4.3-4.9,3.7-2.5,5.2-4,2.9-3.4,4.4-4.9,3.7-2.6,5.2-4.1,2.3-4.1,3.7-5.5,3.1-3.5,4.4-4.8c2.4-2.5,4.5-3.8,4.9-4.3-.2-2.2-.9-4.1-1.1-6.4s-.2-3.9-.4-6.5c-.1-2,.5-4.2.3-6.4s-.3-4.1-.5-6.3.3-4.2,0-6.4-2-4.1-2.1-6.2,0-4.2-.2-6.4,0-4.3-.1-6.4-1.3-4.2-1.5-6.3.3-4.3.1-6.4.1-4.3,0-6.4-1.1-4.3-1.3-6.3.7-4.5.6-6.4-.2-4.5-.3-6.4c-.3-3.4-1-6.3-1-7,1.2.7,3.6,2.1,5.8,3.7s2.8,3.8,4.5,5,4.4,2.7,5.6,3.4c.2,0,.5-.3.5-.5-.3-1.6-.9-3.7-1.3-6.2s-.4-4.1-.7-6.3-.8-4.1-1.1-6.3-1.6-4-2-6.1-.2-4.3-.5-6.4-.9-4.2-1.2-6.3.4-4.5,0-6.5-.8-4.5-1.1-6.3c-.6-3.2-1.3-6.1-1.5-6.9-.7.7-2.3,3.4-4.6,5.7s-2.4,3.6-4.1,5.3-4.6,1.5-6.3,3.2-1.8,4.4-3.5,6-4.2,2.1-5.8,3.7-2.1,4.3-3.6,5.8-3.8,2.6-5.4,4.1-3,3.5-4.5,5-3.1,3.5-4.5,4.9-3.4,3.7-4.6,4.9c-.3.3-1-.5-.3-.6,1.8-.1,4.4-.8,7.3-1.1s5.1,1,7.5.8,5.7-1.1,7.3-1.2c0,.6-1.1,2.8-1.7,6.3s-.4,4-.8,6.4.8,4.3.4,6.6-2,3.9-2.4,6.1.3,4.3,0,6.5-1.2,4.1-1.6,6.3-2,4-2.4,6.1.3,4.4,0,6.5-1.5,4.1-1.9,6.2.9,4.5.6,6.6-.9,4.2-1.3,6.3-.5,4.3-.8,6.4-1.5,4.1-1.9,6.2-.3,4.3-.7,6.4-.9,4.2-1.3,6.3-2.2,4-2.6,6.1-.4,4.4-.7,6.4-.2,4.4-.6,6.4-1.7,4.2-2,6.2.5,4.6.2,6.6,0,4.5-.4,6.5-1.2,4.5-1.5,6.3c-.6,3.6-1.7,5.9-1.8,6.4,0,.2.6.2.6.2Z"/>
  </g>
</svg>